<svg height="475pt" viewBox="-45 0 475 475.06261" width="475pt" xmlns="http://www.w3.org/2000/svg"><path d="m330.921875 58.761719c49.148437 51.417969 69.101563 128.957031 41.871094 200.988281-6.070313 16.988281-15.78125 31.558594-27.3125 44.910156l-139.96875 164.410156c-3.234375 3.800782-7.976563 5.992188-12.96875 5.992188-4.992188 0-9.734375-2.191406-12.972657-5.992188l-139.96875-164.410156c-11.53125-13.351562-21.238281-28.519531-27.308593-44.910156-46.121094-121.988281 43.089843-259.75 180.25-259.75 56.167969 0 104.300781 23.101562 138.378906 58.761719zm12.5 133.628906c0-83.328125-67.550781-150.878906-150.878906-150.878906s-150.882813 67.550781-150.882813 150.878906 67.554688 150.878906 150.882813 150.878906c83.324219-.003906 150.875-67.550781 150.878906-150.878906zm0 0" fill="#00acea"/><path d="m192.542969 41.5c83.332031-.003906 150.886719 67.546875 150.890625 150.878906 0 83.332032-67.550782 150.886719-150.882813 150.890625-83.332031.003907-150.886719-67.546875-150.890625-150.878906 0-83.332031 67.550782-150.886719 150.882813-150.890625zm0 0" fill="#00efd1"/><path d="m288.722656 133.25v132.328125h-51v-132.328125zm0 0" fill="#fedb41"/><path d="m153.863281 156.230469v-68.75h83.859375v178.097656h-83.859375zm0 0" fill="#00acea"/><path d="m153.863281 156.230469v109.347656h-57.5v-81.859375h24.4375v-27.488281zm0 0" fill="#fedb41"/><path d="m266.171875 208.398438h-8.25c-3.867187 0-7-3.132813-7-7 0-3.863282 3.132813-7 7-7h8.25c3.867187 0 7 3.136718 7 7 0 3.867187-3.132813 7-7 7zm0 0" fill="#00acea"/><path d="m266.171875 228.210938h-8.25c-3.867187 0-7-3.136719-7-7 0-3.867188 3.132813-7 7-7h8.25c3.867187 0 7 3.132812 7 7 0 3.863281-3.132813 7-7 7zm0 0" fill="#00acea"/><path d="m266.171875 248.011719h-8.25c-3.867187 0-7-3.136719-7-7 0-3.867188 3.132813-7 7-7h8.25c3.867187 0 7 3.132812 7 7 0 3.863281-3.132813 7-7 7zm0 0" fill="#00acea"/><path d="m215.671875 175.269531c-3.867187 0-7-3.132812-7-7v-12.667969c0-3.867187 3.132813-7 7-7s7 3.132813 7 7v12.667969c0 3.867188-3.132813 7-7 7zm0 0" fill="#00efd1"/><path d="m195.871094 175.269531c-3.863282 0-7-3.132812-7-7v-12.667969c0-3.867187 3.136718-7 7-7 3.867187 0 7 3.132813 7 7v12.667969c0 3.867188-3.132813 7-7 7zm0 0" fill="#00efd1"/><path d="m176.0625 175.269531c-3.867188 0-7-3.132812-7-7v-12.667969c0-3.867187 3.132812-7 7-7s7 3.132813 7 7v12.667969c0 3.867188-3.132812 7-7 7zm0 0" fill="#00efd1"/><path d="m266.171875 168.839844h-8.25c-3.867187 0-7-3.132813-7-7 0-3.867188 3.132813-7 7-7h8.25c3.867187 0 7 3.132812 7 7 0 3.867187-3.132813 7-7 7zm0 0" fill="#00acea"/><path d="m266.171875 188.648438h-8.25c-3.867187 0-7-3.132813-7-7 0-3.863282 3.132813-7 7-7h8.25c3.867187 0 7 3.136718 7 7 0 3.867187-3.132813 7-7 7zm0 0" fill="#00acea"/><g fill="#00efd1"><path d="m215.671875 141.761719c-3.867187 0-7-3.136719-7-7v-12.671875c0-3.867188 3.132813-7 7-7s7 3.132812 7 7v12.671875c0 3.863281-3.132813 7-7 7zm0 0"/><path d="m195.871094 141.761719c-3.863282 0-7-3.136719-7-7v-12.671875c0-3.867188 3.136718-7 7-7 3.867187 0 7 3.132812 7 7v12.671875c0 3.863281-3.132813 7-7 7zm0 0"/><path d="m176.0625 141.761719c-3.867188 0-7-3.136719-7-7v-12.671875c0-3.867188 3.132812-7 7-7s7 3.132812 7 7v12.671875c0 3.863281-3.132812 7-7 7zm0 0"/><path d="m215.671875 208.789062c-3.867187 0-7-3.132812-7-7v-12.679687c0-3.867187 3.132813-7 7-7s7 3.132813 7 7v12.679687c0 3.867188-3.132813 7-7 7zm0 0"/><path d="m195.871094 208.789062c-3.863282 0-7-3.132812-7-7v-12.679687c0-3.867187 3.136718-7 7-7 3.867187 0 7 3.132813 7 7v12.679687c0 3.867188-3.132813 7-7 7zm0 0"/><path d="m176.0625 208.789062c-3.867188 0-7-3.132812-7-7v-12.679687c0-3.867187 3.132812-7 7-7s7 3.132813 7 7v12.679687c0 3.867188-3.132812 7-7 7zm0 0"/><path d="m215.671875 242.300781c-3.867187 0-7-3.136719-7-7v-12.679687c0-3.867188 3.132813-7 7-7s7 3.132812 7 7v12.679687c0 3.863281-3.132813 7-7 7zm0 0"/><path d="m195.871094 242.300781c-3.863282 0-7-3.136719-7-7v-12.679687c0-3.867188 3.136718-7 7-7 3.867187 0 7 3.132812 7 7v12.679687c0 3.863281-3.132813 7-7 7zm0 0"/><path d="m176.0625 242.300781c-3.867188 0-7-3.136719-7-7v-12.679687c0-3.867188 3.132812-7 7-7s7 3.132812 7 7v12.679687c0 3.863281-3.132812 7-7 7zm0 0"/></g></svg>