<svg id="Bold" enable-background="new 0 0 24 24" height="512" viewBox="0 0 24 24" width="512" xmlns="http://www.w3.org/2000/svg"><g><path d="m18.91 10.81-1.57-4.65c-.24-.69-.91-1.16-1.68-1.16h-7.32c-.77 0-1.44.47-1.68 1.16l-1.57 4.65c-.14.39-.11.82.07 1.19.04.09.09.18.15.27.33.46.87.73 1.46.73h10.46c.59 0 1.13-.27 1.46-.73.06-.09.11-.18.15-.27.18-.37.21-.8.07-1.19zm-8.79-2.31-.66 1.99c-.1.31-.4.51-.71.51-.08 0-.16-.01-.23-.04-.4-.13-.61-.55-.48-.95l.82-2.5c.1-.3.39-.51.72-.51h3.67c.41 0 .75.34.75.75s-.34.75-.75.75z"/></g><g><path d="m12.93 17.82-1.45-4.64c-.02-.06-.04-.12-.07-.18-.26-.59-.87-1-1.53-1h-6.74c-.73 0-1.39.49-1.6 1.18l-1.46 4.65c-.15.51-.06 1.06.26 1.49s.82.68 1.36.68h9.62c.54 0 1.04-.25 1.36-.68s.41-.98.25-1.5zm-4.68-2.32h-3.13l-.66 1.99c-.1.31-.4.51-.71.51-.08 0-.16-.01-.23-.04-.4-.13-.61-.55-.48-.95l.82-2.5c.1-.3.39-.51.72-.51h3.67c.41 0 .75.34.75.75s-.34.75-.75.75z"/></g><g><path d="m23.66 19.32c-.32.43-.81.68-1.35.68h-8.29c.4-.61.56-1.33.47-2.06.01.01.02.02.03.02.07.03.15.04.23.04.31 0 .61-.2.71-.51l.66-1.99h3.13c.41 0 .75-.34.75-.75s-.34-.75-.75-.75h-3.67c-.33 0-.62.21-.72.51l-.71 2.16-1.15-3.67-.08-.25c-.02-.05-.03-.11-.06-.16.31-.37.77-.59 1.27-.59h6.74c.73 0 1.39.48 1.61 1.18l1.45 4.64c.15.53.06 1.07-.27 1.5z"/></g></svg>