<svg id="Layer_1" enable-background="new 0 0 512.006 512.006" height="512" viewBox="0 0 512.006 512.006" width="512" xmlns="http://www.w3.org/2000/svg"><g><path d="m454.174 332.482-32.874-34.678c-8.949-9.456-13.211-13.655-20.446-14.091-7.357-.256-16.865 11.304-24.862 20.643-3.685 4.35-7.496 8.849-11.424 12.764-44.401 45.749-116.718 52.521-147.222-4.953-8.731-17.263-9.61-35.651-2.473-51.778 1.594-3.601 3.502-6.954 5.187-9.912 2.116-3.717 4.481-7.869 4.824-10.364-.656-.8-1.729-1.936-2.505-2.758-2.785-2.947-6.25-6.614-8.626-11.621-10.58-22.289-3.744-51.111 16.624-70.089 16.879-15.727 38.971-22.179 55.439-25.557-35.155-38.607-7.203-102.346 45.516-102.159h41.232c-36.929-19.206-80.228-29.273-124.693-27.784-.108.02-.212.051-.321.068-26.343 4.197-50.223 21.621-62.32 45.474-8.783 17.452-12.332 38.687-19.504 57.644-7.505 20.155-22.252 46.082-49.89 55.148-6.935 2.276-13.698 3.2-20.265 3.2-25.205.14-46.597-13.644-69.814-17.564-12.963 26.605-21.467 55.789-24.527 86.579 10.675 1.326 21.395.383 35.694-2.798 9.054-2.016 24.077-5.36 35.711 5.27 5.209 4.759 7.598 10.61 9.247 15.707 1.603 4.953 2.859 9.845 4.073 14.575 1.552 6.043 3.017 11.751 5.037 16.957 1.883 4.853 6.062 13.472 12.899 16.68 1.795.842 4.269 1.545 6.888 2.289 4.526 1.286 9.657 2.743 14.845 5.73 13.366 7.691 22.104 23.279 23.376 41.696 1.949 28.23-9.435 47.733-21.488 68.382l-1.636 2.807c-13.374 22.979-18.143 36.518-19.45 46.04 35.439 25.475 77.667 42.124 123.47 46.74.196-10.368-1.304-19.174-6.287-30.004-1.363-2.961-3.145-6.066-5.031-9.353-5.121-8.926-10.924-19.042-11.583-31.786-1.033-20.036 12.071-39.758 32.609-49.077 17.515-7.947 36.353-7.4 50.81-6.036 54.545 5.118 93.955 27.424 142.764 44.488 2.128.744 5.726 1.998 9.255 2.755 20.682-21.919 37.535-47.491 49.467-75.677-14.482-4.287-28.115-13.461-37.726-23.597z"/><path d="m99.996 399.078c11.129-19.065 18.48-31.66 17.209-50.076-.522-7.549-3.452-13.92-7.463-16.228-1.784-1.027-4.639-1.838-7.662-2.697-3.551-1.009-7.577-2.152-11.711-4.092-12.705-5.961-22.762-17.725-29.084-34.022-2.708-6.978-4.482-13.887-6.197-20.569-1.144-4.457-2.225-8.667-3.525-12.683-.128-.395-.242-.733-.343-1.023-2.089.183-5.226.881-7.302 1.344-14.834 3.301-28.659 5.128-43.885 3.612 1.686 70.451 31.757 133.694 79.206 178.87 4.586-13.823 11.749-26.964 19.099-39.594z"/><path d="m415.449 456.544c-11.637-4.246-22.647-8.656-33.345-12.947-30.807-12.357-59.906-24.03-94.681-27.31-10.529-.995-23.988-1.513-34.668 3.332-8.289 3.761-14.28 11.655-13.933 18.36.264 5.115 3.566 10.87 7.389 17.535 2.154 3.752 4.38 7.633 6.341 11.895 7.483 16.26 9.507 29.866 9.152 44.596 58.079-1.266 111.384-21.786 153.745-55.461z"/><path d="m244.011 273.318c-4.299 9.715-.738 19.476 1.768 24.429 5.687 11.246 16.743 20.134 28.165 22.644 16.699 3.673 43.369-1.205 68.144-25.893 2.975-2.964 6.193-6.763 9.6-10.786 12.544-14.807 28.168-33.222 51.078-31.856 20.104 1.21 31.56 13.315 41.668 23.995l32.855 34.658c6.668 7.033 16.555 13.271 25.175 15.44 16.788-57.558 11.061-126.41-14.919-179.126-6.491 2.354-13.487 3.644-20.779 3.644h-117.897c-12.303 3.667-24.682 5.6-36.699 7.466-22.032 2.882-48.18 8.967-60.083 21.077-11.329 10.556-13.387 24.838-9.58 32.959.42.7 1.984 2.354 3.023 3.454 3.879 4.106 9.743 10.311 10.967 19.547 1.717 12.934-4.087 23.127-8.751 31.317-1.437 2.522-2.795 4.907-3.735 7.031z"/><path d="m63.191 121.796c15.987 5.686 29.797 10.595 42.722 6.355 24.123-9.367 30.776-37.882 36.919-58.091 3.694-12.819 7.515-26.074 13.982-38.824 2.637-5.199 5.683-10.174 9.083-14.892-50.85 19.146-94 54.024-123.545 98.718 7.323 1.934 14.281 4.402 20.839 6.734z"/><path d="m331.332 59.843c-38.899 1.617-38.868 57.106 0 58.709h81.729c-9.898-17.188-9.903-41.517-.011-58.709z"/><path d="m437.432 89.188c1.616 38.963 57.041 38.936 58.648.005-.003-16.184-13.152-29.35-29.314-29.35h-.766c-15.82.405-28.568 13.408-28.568 29.345z"/></g></svg>