<?xml version="1.0" encoding="iso-8859-1"?>
<!-- Generator: Adobe Illustrator 19.0.0, SVG Export Plug-In . SVG Version: 6.00 Build 0)  -->
<svg version="1.1" id="Layer_1" xmlns="http://www.w3.org/2000/svg" xmlns:xlink="http://www.w3.org/1999/xlink" x="0px" y="0px"
	 viewBox="0 0 512 512" style="enable-background:new 0 0 512 512;" xml:space="preserve">
<g>
	<g>
		<path d="M272,223c-44.664,0-81,36.337-81,81c0,44.663,36.336,81,81,81s81-36.337,81-81C353,259.337,316.664,223,272,223z M272,351
			c-25.916,0-47-21.084-47-47s21.084-47,47-47s47,21.084,47,47S297.916,351,272,351z"/>
	</g>
</g>
<g>
	<g>
		<path d="M192,117.213L85.213,224l75.872,75.872c2.129-57.93,48.857-104.658,106.786-106.788L192,117.213z"/>
	</g>
</g>
<g>
	<g>
		<path d="M508.526,56.688L344.872,220.341c10.688,9.322,19.58,20.652,26.08,33.398L512,394.787V80
			C512,71.893,510.778,64.067,508.526,56.688z"/>
	</g>
</g>
<g>
	<g>
		<polygon points="240,421.213 149.213,512 330.787,512 		"/>
	</g>
</g>
<g>
	<g>
		<path d="M272,287c-9.374,0-17,7.626-17,17c0,9.374,7.626,17,17,17c9.374,0,17-7.626,17-17C289,294.626,281.374,287,272,287z"/>
	</g>
</g>
<g>
	<g>
		<path d="M173.048,354.261L64,245.213l-64,64V432c0,44.112,35.888,80,80,80h26.787l111.11-111.109
			C198.729,390.145,183.054,373.882,173.048,354.261z"/>
	</g>
</g>
<g>
	<g>
		<path d="M432,0H309.213l-96,96L320,202.787l173.68-173.68C478.994,11.341,456.797,0,432,0z"/>
	</g>
</g>
<g>
	<g>
		<path d="M382.915,308.128c-2.129,57.929-48.858,104.658-106.787,106.788L373.213,512H432c42.419,0,77.215-33.19,79.825-74.962
			L382.915,308.128z"/>
	</g>
</g>
<g>
	<g>
		<path d="M80,0C35.888,0,0,35.888,0,80v186.788l53.392-53.392c0.001-0.001,0.001-0.001,0.002-0.002
			c0.001-0.001,0.001-0.001,0.002-0.001L266.787,0H80z"/>
	</g>
</g>
<g>
</g>
<g>
</g>
<g>
</g>
<g>
</g>
<g>
</g>
<g>
</g>
<g>
</g>
<g>
</g>
<g>
</g>
<g>
</g>
<g>
</g>
<g>
</g>
<g>
</g>
<g>
</g>
<g>
</g>
</svg>
