<svg height="512pt" viewBox="0 0 512 512" width="512pt" xmlns="http://www.w3.org/2000/svg"><path d="m170 281.992188h25.25c5.519531 0 10-4.476563 10-10 0-5.519532-4.480469-10-10-10h-15.25v-30c0-5.523438-4.476562-10-10-10-5.519531 0-10 4.476562-10 10v40c0 5.523437 4.476562 10 10 10zm0 0"/><path d="m170 212c5.523438 0 10-4.480469 10-10v-.007812c0-5.523438-4.476562-9.996094-10-9.996094-5.519531 0-10 4.480468-10 10.003906s4.476562 10 10 10zm0 0"/><path d="m135.011719 221.375c1.90625 0 3.835937-.542969 5.539062-1.679688 4.597657-3.0625 5.835938-9.273437 2.773438-13.867187l-.003907-.003906c-3.0625-4.597657-9.273437-5.835938-13.863281-2.773438-4.597656 3.0625-5.835937 9.277344-2.773437 13.871094 1.925781 2.890625 5.097656 4.453125 8.328125 4.453125zm0 0"/><path d="m104.421875 245.675781c1.566406.898438 3.273437 1.320313 4.953125 1.320313 3.472656 0 6.847656-1.8125 8.691406-5.039063 2.738282-4.796875 1.074219-10.90625-3.722656-13.644531l-.003906-.003906c-4.796875-2.738282-10.902344-1.074219-13.640625 3.722656-2.742188 4.796875-1.070313 10.90625 3.722656 13.644531zm0 0"/><path d="m110.007812 271.992188c0-5.519532-4.480468-10-10-10h-.007812c-5.523438 0-9.996094 4.480468-9.996094 10 0 5.523437 4.480469 10 10.003906 10 5.523438 0 10-4.476563 10-10zm0 0"/><path d="m114.347656 315.671875c4.792969-2.738281 6.460938-8.847656 3.71875-13.644531-2.738281-4.792969-8.847656-6.460938-13.644531-3.71875l-.003906.003906c-4.796875 2.738281-6.460938 8.847656-3.71875 13.640625 1.84375 3.230469 5.21875 5.039063 8.691406 5.039063 1.683594 0 3.390625-.425782 4.957031-1.320313zm0 0"/><path d="m130.042969 341.296875c1.5625.894531 3.265625 1.316406 4.949219 1.316406 3.472656 0 6.847656-1.8125 8.695312-5.042969 2.738281-4.792968 1.074219-10.902343-3.722656-13.644531-4.796875-2.738281-10.902344-1.070312-13.644532 3.722657l-.003906.007812c-2.738281 4.792969-1.070312 10.898438 3.726563 13.640625zm0 0"/><path d="m170 351.992188c5.523438 0 10-4.480469 10-10.003907 0-5.523437-4.476562-10-10-10-5.519531 0-10 4.476563-10 10v.007813c0 5.519531 4.476562 9.996094 10 9.996094zm0 0"/><path d="m201.058594 323.417969c-5.074219 2.175781-7.425782 8.054687-5.25 13.132812l.003906.007813c1.625 3.789062 5.3125 6.058594 9.191406 6.058594 1.3125 0 2.648438-.261719 3.9375-.8125 5.074219-2.175782 7.425782-8.058594 5.25-13.132813-2.175781-5.078125-8.054687-7.433594-13.132812-5.253906zm0 0"/><path d="m225.070312 315.308594.007813.003906c1.703125 1.140625 3.628906 1.683594 5.535156 1.683594 3.230469 0 6.402344-1.566406 8.328125-4.457032 3.0625-4.59375 1.820313-10.804687-2.773437-13.867187-4.597657-3.066406-10.804688-1.824219-13.867188 2.769531-3.066406 4.597656-1.824219 10.804688 2.769531 13.867188zm0 0"/><path d="m229.996094 271.992188c0 5.523437 4.476562 10 10 10h.007812c5.523438 0 9.996094-4.476563 9.996094-10 0-5.519532-4.480469-10-10.003906-10-5.523438 0-10 4.476562-10 10zm0 0"/><path d="m230.628906 246.996094c1.90625 0 3.832032-.542969 5.539063-1.679688l.003906-.003906c4.597656-3.0625 5.835937-9.273438 2.769531-13.867188-3.0625-4.59375-9.269531-5.832031-13.867187-2.769531-4.597657 3.0625-5.839844 9.273438-2.773438 13.867188 1.925781 2.890625 5.09375 4.453125 8.328125 4.453125zm0 0"/><path d="m199.453125 219.695312c1.703125 1.136719 3.632813 1.679688 5.535156 1.679688 3.230469 0 6.402344-1.5625 8.332031-4.453125l.003907-.003906c3.0625-4.597657 1.820312-10.800781-2.777344-13.867188-4.59375-3.0625-10.808594-1.816406-13.867187 2.777344-3.0625 4.59375-1.824219 10.804687 2.773437 13.867187zm0 0"/><path d="m502 441.996094h-10v-320c0-16.542969-13.457031-29.996094-30-29.996094h-59.222656c-3.445313-4.660156-6.035156-8.75-6.054688-10.730469 1.671875-16.828125 1.871094-33.441406-14.996094-36.03125-.242187-1.253906-.507812-3.457031-.507812-7.125 0-17.574219-5.726562-30.65625-15.714844-35.894531-6.355468-3.332031-13.667968-2.890625-19.554687 1.183594-8.75 6.050781-12.683594 18.316406-10.800781 33.652344.625 5.074218-.441407 8.632812-1.675782 12.753906-1.378906 4.59375-3.09375 10.316406-1.265625 16.96875.863281 3.148437-.464843 6.539062-1.957031 8.832031-4.964844-4.234375-12.167969-10.28125-13.867188-11.226563-3.667968-2.039062-8.230468-3.445312-12.648437-4.804687-1.835937-.5625-4.519531-1.390625-6.410156-2.113281.515625-3.753906 3.878906-7.871094 5.53125-9.695313 4.511719-4.984375 5.765625-11.078125 3.445312-16.722656-3.097656-7.523437-11.855469-12.851563-28.386719-17.277344-10.535156-2.816406-21.578124-4.460937-25.726562-4.6875-12.957031-.699219-19.535156 5.425781-23.886719 9.480469-1.0625.992188-1.984375 1.847656-2.804687 2.433594-12.847656 9.152344-20.496094 15.371094-16.058594 27.40625.226562.605468.425781 1.148437.539062 1.785156-.773437.183594-1.285156.242188-1.582031.257812-.375-.398437-.929687-1.101562-1.359375-1.644531-2.972656-3.765625-8.480468-10.773437-20.921875-10.285156-13.992187.550781-21.699219 12.40625-26.800781 20.253906-.988281 1.523438-2.320312 3.570313-3.398438 4.984375-9.789062-3.621094-18.109374.355469-22.285156 6.378906-4.597656 6.625-4.65625 15.4375-.644531 21.867188h-2.984375c-5.523438 0-10 4.476562-10 9.996094 0 2.527344.941406 4.828125 2.488281 6.589844-8.082031 5.65625-15.734375 9.238281-17.585937 9.777343-17.0625 3.382813-29.066406 7.703125-37.324219 13.636719h-27.578125v-10.003906c0-5.511719 4.488281-10 10-10 5.523438 0 10-4.476563 10-10 0-5.519532-4.476562-9.996094-10-9.996094-16.542969 0-30 13.453125-30 29.996094v320h-10c-5.523438 0-10 4.476562-10 10v30c0 16.539062 13.457031 30 30 30h452c16.542969 0 30-13.460938 30-30v-30c0-5.523438-4.476562-10-10-10zm-30-320v10.003906h-38.230469c-4.882812-7.21875-10.046875-13.882812-14.980469-20.003906h43.210938c5.511719 0 10 4.488281 10 10zm-363.085938 15.960937c6.773438-1.335937 32.417969-14.3125 42.699219-29.851562.417969-.539063.78125-1.125 1.082031-1.746094 1.109376-1.917969 1.988282-3.871094 2.539063-5.839844 1.671875-5.972656.566406-11.859375-3.023437-16.644531 5.433593 1.757812 11.074218.429688 15.8125-3.816406 3.136718-2.8125 5.527343-6.492188 8.058593-10.390625 3.359375-5.167969 7.167969-11.023438 10.820313-11.167969 2.238281-.089844 2.242187-.089844 4.4375 2.691406 5.933594 7.515625 13.902344 13.378906 31.882812 5.445313 2.804688-1.238281 4.886719-3.691407 5.648438-6.660157 2.042968-7.941406 1.078125-13.144531.046875-16.445312 1.363281-1.1875 3.808593-3.128906 8.183593-6.242188 1.890626-1.351562 3.457032-2.808593 4.835938-4.09375 3.328125-3.101562 4.707031-4.390624 9.171875-4.144531 7.664063.417969 26.546875 4.574219 34.269531 8.449219-7.101562 9.15625-9.65625 18.882812-7.203125 27.722656 2.253907 8.113282 10.71875 10.714844 19.679688 13.472656 3.003906.921876 6.375 1.960938 8.328125 2.914063 2.679687 2.125 13.957031 11.648437 15.429687 12.933594 3.496094 3.175781 9.65625 5.023437 16.628907.808593 9.300781-5.621093 17.011718-20.167968 13.253906-33.867187-.292969-1.0625.238281-2.949219 1.136718-5.9375 1.476563-4.9375 3.503907-11.695313 2.367188-20.933594-1.039062-8.457031.746094-12.746093 1.8125-14.214843 1.472656 1.496093 4.40625 6.507812 4.40625 17.714843 0 11.875 1.9375 24.246094 15.992188 26.675781.257812 2.09375.421874 6.339844-.390626 14.503907-1.152343 11.59375 8.109376 22.898437 20.929688 38.539062 6.421875 7.839844 13.703125 16.726563 20.128906 26.355469 12.285156 18.414062 26.199219 58.15625 20.039063 78.519531-1.304688 4.304688-5.449219 10.929688-9.457031 17.335938-2.085938 3.339843-4.246094 6.789062-6.257813 10.285156-1.140625 1.980469-2.230469 3.953125-3.292969 5.894531-4.261718 7.746094-7.941406 14.4375-12.984375 17.253906-11.234375 6.273438-11.769531 17.039063-12.089843 23.472657-.066407 1.304687-.15625 3.148437-.355469 4.179687-.746094.203125-2.398438.488282-5.53125.351563-5.828125-.226563-10.101563 2.859375-13.519531 5.359375-5.039063 3.683594-6.734376 4.925781-13.53125-.222656-9.273438-7.019532-17.421876-2.804688-20.902344-1-1.128906.582031-2.183594 1.164062-2.625 1.097656-.230469-.019532-2.40625-.316406-7.214844-4.640625-8.945312-8.042969-11.558594-12.632813-13.46875-15.980469-4.964844-8.71875-9.386719-11.214844-23.648438-13.355469-8.476562-1.269531-8.808593-2.183593-10.640624-7.253906-.796876-2.203125-1.761719-4.84375-3.316407-7.71875-7-53.957031-53.246093-95.769531-109.078125-95.769531-34.792968 0-65.859375 16.238281-86.03125 41.535156-9.214844-25.441406-14.351562-41.597656-9.519531-50.164062 3.671875-6.511719 14.945313-11.550782 34.460937-15.410157zm61.089844 44.035157c49.625 0 90 40.375 90 90 0 49.628906-40.375 90-90 90-49.628906 0-90.003906-40.371094-90.003906-90 0-49.625 40.375-90 90.003906-90zm-130.003906 240h322c5.519531 0 10-4.476563 10-10 0-5.519532-4.480469-10-10-10h-322v-249.992188h13.714844c-3.902344 16.074219 3.3125 35.933594 12.082031 60.078125 1.449219 3.988281 3.375 7.863281 5.417969 11.566406-7.175782 14.601563-11.214844 31.011719-11.214844 48.347657 0 60.65625 49.347656 110 110.003906 110 54.699219 0 100.195313-40.136719 108.601563-92.503907 3.085937 1.300781 6.839843 2.335938 11.46875 3.027344 5.554687.835937 7.523437 1.441406 8.210937 1.738281.257813.394532.675782 1.125 1.023438 1.738282 2.292968 4.019531 6.125 10.746093 17.472656 20.953124 14.386719 12.9375 24.078125 10.738282 32.402344 6.433594.136718-.070312.285156-.148437.4375-.226562 7.078125 5.15625 13.277344 6.941406 18.5625 6.941406 8.324218 0 14.382812-4.429688 18.054687-7.113281.664063-.484375 1.507813-1.101563 2.09375-1.480469 24.324219.496094 25.117188-16.316406 25.476563-23.5625.292968-5.851562.683594-6.339844 1.871094-7.003906 10.050781-5.613282 15.492187-15.507813 20.753906-25.078125 1.003906-1.824219 2.023437-3.683594 3.101562-5.546875 1.828125-3.179688 3.890625-6.472656 5.882813-9.65625 4.917969-7.867188 9.566406-15.292969 11.640625-22.15625 6.410156-21.191406-1.53125-52.847656-12.261719-76.496094h27.203125v249.992188h-30c-5.523438 0-10 4.480468-10 10 0 5.523437 4.476562 10 10 10h30v20.003906h-156c-5.523438 0-10 4.476562-10 10h-100c0-5.523438-4.476562-10-10-10h-156zm452 60.003906c0 5.511718-4.484375 10-10 10h-452c-5.515625 0-10-4.488282-10-10v-20h168.683594c3.464844 5.972656 9.929687 10 17.316406 10h100c7.386719 0 13.855469-4.027344 17.316406-10h168.683594zm0 0"/><path d="m401.996094 401.992188c-5.523438 0-9.996094 4.480468-9.996094 10 0 5.523437 4.480469 10 10.003906 10 5.523438 0 10-4.476563 10-10 0-5.519532-4.480468-10-10-10zm0 0"/><path d="m395.761719 379.777344c.695312-1.613282 1.378906-3.058594 2.042969-4.453125 3.078124-6.5 5.992187-12.640625 4.023437-24.046875-.769531-4.472656-2.785156-7.847656-5.984375-10.039063-5.007812-3.425781-10.457031-2.320312-14.433594-1.515625-2.335937.476563-4.535156.925782-6.78125.757813-1.480468-.105469-3.019531-.269531-4.648437-.441407-8.207031-.878906-17.515625-1.867187-23.210938 5.136719-3.523437 4.332031-4.171875 10.058594-1.925781 17.019531.734375 2.28125 1.246094 4.425782 1.742188 6.5 1.738281 7.285157 3.710937 15.542969 14.648437 23.425782 3.0625 2.207031 6.730469 3.332031 10.683594 3.332031 1.988281 0 4.050781-.285156 6.140625-.859375 7.804687-2.160156 14.753906-7.972656 17.703125-14.816406zm-23.460938-4.347656c-4.324219-3.265626-4.84375-5.441407-6.265625-11.382813-.324218-1.363281-.675781-2.832031-1.105468-4.421875 1.027343.09375 2.054687.203125 2.933593.296875 1.71875.183594 3.5.375 5.3125.507813 3.496094.25 6.597657-.089844 9.191407-.527344-.304688 1.9375-1.164063 3.75-2.636719 6.855468-.699219 1.480469-1.496094 3.160157-2.332031 5.101563-.65625 1.519531-3.53125 3.347656-5.097657 3.570313zm0 0"/><path d="m90.003906 111.996094c5.523438 0 10-4.476563 10-10 0-5.519532-4.476562-9.996094-10-9.996094h-.007812c-5.519532 0-9.996094 4.476562-9.996094 9.996094 0 5.523437 4.480469 10 10.003906 10zm0 0"/></svg>