<svg id="bold" enable-background="new 0 0 24 24" height="512" viewBox="0 0 24 24" width="512" xmlns="http://www.w3.org/2000/svg"><path d="m12.75 12c-.197 0-.389-.078-.53-.22-.178-.177-.254-.431-.205-.677l.7-3.503c.029-.145.101-.279.205-.383l6.707-6.707c.678-.679 1.784-.678 2.462 0l1.401 1.401c.679.678.679 1.783 0 2.461l-6.707 6.707c-.104.105-.238.176-.383.205l-3.503.701c-.048.01-.098.015-.147.015zm3.503-1.451h.01z"/><path d="m19 17v-5.31l-.8.8c-.33.34-.74.58-1.2.7v3.81h-13v-9h6.59l.16-.79c.11-.54.37-1.02.76-1.41l1.8-1.8h-12.31c-.55 0-1 .45-1 1v2c0 .55.45 1 1 1h1v9c-.552 0-1 .448-1 1s.448 1 1 1h6.844l-2.634 3.386c-.339.436-.26 1.064.176 1.403.434.337 1.063.26 1.403-.176l2.71-3.485 2.71 3.485c.339.435.968.514 1.403.176.436-.339.515-.968.176-1.403l-2.632-3.386h6.844c.552 0 1-.448 1-1s-.448-1-1-1z"/></svg>