<svg height="512" viewBox="0 0 512 512" width="512" xmlns="http://www.w3.org/2000/svg" xmlns:xlink="http://www.w3.org/1999/xlink"><linearGradient id="New_Gradient_Swatch_21" gradientUnits="userSpaceOnUse" x1="3.5" x2="507.5" y1="288.5" y2="288.5"><stop offset=".011" stop-color="#fdecbf"/><stop offset="1" stop-color="#fef9ea"/></linearGradient><linearGradient id="New_Gradient_Swatch_21-2" xlink:href="#New_Gradient_Swatch_21" y1="301.761" y2="301.761"/><linearGradient id="New_Gradient_Swatch_5" gradientUnits="userSpaceOnUse" x1="3.5" x2="507.5" y1="143.107" y2="143.107"><stop offset=".011" stop-color="#f8c73f"/><stop offset="1" stop-color="#fada7f"/></linearGradient><linearGradient id="New_Gradient_Swatch_20" gradientUnits="userSpaceOnUse" x1="3.5" x2="507.5" y1="178.429" y2="178.429"><stop offset=".011" stop-color="#fce6aa"/><stop offset="1" stop-color="#fdf3d4"/></linearGradient><linearGradient id="New_Gradient_Swatch_12" gradientUnits="userSpaceOnUse" x1="3.5" x2="507.5" y1="268.866" y2="268.866"><stop offset=".011" stop-color="#80d1cb"/><stop offset="1" stop-color="#bfe8e5"/></linearGradient><linearGradient id="New_Gradient_Swatch_12-2" x1="3.5" x2="507.5" xlink:href="#New_Gradient_Swatch_12" y1="405.353" y2="405.353"/><linearGradient id="New_Gradient_Swatch_8" gradientUnits="userSpaceOnUse" x1="3.5" x2="507.5" y1="194.874" y2="194.874"><stop offset=".011" stop-color="#fad46a"/><stop offset="1" stop-color="#fce6aa"/></linearGradient><linearGradient id="New_Gradient_Swatch_5-2" x1="3.5" x2="507.5" xlink:href="#New_Gradient_Swatch_5" y1="377.868" y2="377.868"/><linearGradient id="New_Gradient_Swatch_8-2" x2="507.5" xlink:href="#New_Gradient_Swatch_8" y1="422.141" y2="422.141"/><linearGradient id="New_Gradient_Swatch_20-2" x2="507.5" xlink:href="#New_Gradient_Swatch_20" y1="401.89" y2="401.89"/><linearGradient id="New_Gradient_Swatch_13" gradientUnits="userSpaceOnUse" x1="195.432" x2="316.568" y1="182.966" y2="61.83"><stop offset="0" stop-color="#d46669"/><stop offset="1" stop-color="#dd888a"/></linearGradient><linearGradient id="New_Gradient_Swatch_22" gradientUnits="userSpaceOnUse" x1="227.729" x2="284.271" y1="148.271" y2="91.729"><stop offset=".011" stop-color="#dcdce3"/><stop offset="1" stop-color="#ededf1"/></linearGradient><g id="_07-map" data-name="07-map"><g id="gradient"><rect fill="url(#New_Gradient_Swatch_21)" height="344" rx="12" width="504" x="3.5" y="116.5"/><path d="m26.142 266.472a11.758 11.758 0 0 1 -5.208-5.859l-17.434-19.613v121.522l79.077-32.561z" fill="url(#New_Gradient_Swatch_21-2)"/><path d="m248.352 116.5h-124.677l33.03 53.214z" fill="url(#New_Gradient_Swatch_5)"/><path d="m135.941 181.771-40.513-65.271h-79.928a12 12 0 0 0 -12 12v76.375l31.54 35.483z" fill="url(#New_Gradient_Swatch_20)"/><path d="m407.545 319.961 99.955 28.559v-159.308l-112.48 43.077z" fill="url(#New_Gradient_Swatch_12)"/><path d="m3.5 388.478v60.022a12 12 0 0 0 12 12h121.58l-40.635-110.294z" fill="url(#New_Gradient_Swatch_12-2)"/><path d="m169.367 190.115 51.6 83.133 147.586-56.523-14.318-100.225h-58.087z" fill="url(#New_Gradient_Swatch_8)"/><path d="m118.653 341.062 40.598 110.192 67.503-63.285-19.266-83.487z" fill="url(#New_Gradient_Swatch_5-2)"/><path d="m246.639 402.225-62.16 58.275h98.657l7.307-76.719z" fill="url(#New_Gradient_Swatch_8-2)"/><path d="m315.558 373.206-8.313 87.294h96.133l-16.745-117.219z" fill="url(#New_Gradient_Swatch_20-2)"/><path d="m407.545 319.961-12.525-87.672 112.48-43.077v-25.7l-115.961 44.41-13.06-91.422h-24.244l14.318 100.225-147.586 56.523-51.6-83.133 126.781-73.615h-47.8l-91.647 53.214-33.026-53.214h-28.247l40.513 65.271-100.901 58.587-31.54-35.483v36.125l17.434 19.613a11.758 11.758 0 0 0 5.208 5.859l56.435 63.489-79.077 32.561v25.956l92.945-38.272 40.635 110.294h47.4l62.16-58.275 43.8-18.444-7.304 76.719h24.109l8.313-87.294 71.075-29.925 16.745 117.219h24.244l-16.36-114.516 96.238 27.5v-24.964zm-356.234-61.3 97.289-56.49 49.736 80.129-92.252 37.986zm107.94 192.591-40.6-110.192 88.835-36.58 19.266 83.487zm89.235-75.848-18.446-79.931 141.994-54.381 11.09 77.625z" fill="#9595ac"/><path d="m256 36a84.1 84.1 0 0 0 -84 84c0 22.962 13.148 49.214 39.081 78.027a323.174 323.174 0 0 0 37.552 35.445 12 12 0 0 0 14.734 0 323.174 323.174 0 0 0 37.552-35.445c25.933-28.813 39.081-55.065 39.081-78.027a84.1 84.1 0 0 0 -84-84z" fill="url(#New_Gradient_Swatch_13)"/><circle cx="256" cy="120" fill="url(#New_Gradient_Swatch_22)" r="40"/></g></g></svg>