<svg id="Capa_1" enable-background="new 0 0 512 512" height="512" viewBox="0 0 512 512" width="512" xmlns="http://www.w3.org/2000/svg"><path d="m467 391h-297.408c6.695 13.984 10.408 29.332 10.408 45 0 15.648-3.702 30.987-10.402 45h297.402c10.46 0 12.003-7.531 40.605-34.395 5.859-5.859 5.859-15.352 0-21.211-28.566-26.829-30.165-34.394-40.605-34.394z"/><path d="m75 361c-41.353 0-75 33.647-75 75s33.647 76 75 76c42.997 0 75-36.225 75-76 0-39.788-32.062-75-75-75z"/><path d="m377 301c10.46 0 12.003-7.531 40.605-34.395 5.859-5.859 5.859-15.352 0-21.211-28.566-26.829-30.165-34.394-40.605-34.394h-207.408c6.695 13.984 10.408 29.332 10.408 45 0 15.648-3.702 30.987-10.402 45z"/><circle cx="75" cy="256" r="75"/><path d="m257 121c10.46 0 12.003-7.531 40.605-34.395 5.859-5.859 5.859-15.352 0-21.211-28.566-26.829-30.165-34.394-40.605-34.394h-87.408c6.695 13.984 10.408 29.332 10.408 45 0 15.648-3.702 30.987-10.402 45z"/><path d="m75 0c-41.353 0-75 34.647-75 76s33.647 75 75 75c42.997 0 75-35.225 75-75 0-39.788-32.062-76-75-76z"/></svg>