<svg id="Capa_1" enable-background="new 0 0 512 512" height="512" viewBox="0 0 512 512" width="512" xmlns="http://www.w3.org/2000/svg"><g><g><g><path d="m422 271h-197v-30h197c33.076 0 60-26.909 60-60s-26.924-60-60-60h-15v-30h15c49.629 0 90 40.371 90 90s-40.371 90-90 90z" fill="#80564d"/></g><g><path d="m0 91h287v30h-287z" fill="#80564d"/></g><g><path d="m407 391h105v30h-105z" fill="#80564d"/></g><g><path d="m287 421h-197c-49.629 0-90-40.371-90-90s40.371-90 90-90h15v30h-15c-33.076 0-60 26.909-60 60s26.924 60 60 60h197z" fill="#80564d"/></g></g><g><path d="m362 31-15 30-15-30h-60v150h150v-150z" fill="#ffd899"/></g><path d="m422 181v-150h-60l-15 30v120z" fill="#e6b973"/><g><path d="m332 31h30v60h-30z" fill="#e4a046"/></g><path d="m347 31h15v60h-15z" fill="#d79148"/><g><path d="m180 181-15 30-15-30h-60v150h150v-150z" fill="#ffd899"/></g><path d="m240 331v-150h-60l-15 30v120z" fill="#e6b973"/><g><path d="m150 181h30v60h-30z" fill="#e4a046"/></g><path d="m165 181h15v60h-15z" fill="#d79148"/><g><path d="m362 331-15 30-15-30h-60v150h150v-150z" fill="#ffd899"/></g><path d="m422 481v-150h-60l-15 30v120z" fill="#e6b973"/><g><path d="m332 331h30v60h-30z" fill="#e4a046"/></g><path d="m347 331h15v60h-15z" fill="#d79148"/></g></svg>