<?xml version="1.0"?>
<svg xmlns="http://www.w3.org/2000/svg" id="Layer_1" data-name="Layer 1" viewBox="0 0 512 512" width="512" height="512"><title>Travel calander location plan</title><path d="M288.12,90.527H146.858a31.793,31.793,0,0,1-31.734,30.681h-1.382A31.793,31.793,0,0,1,82.009,90.527H65.838A28.872,28.872,0,0,0,37,119.365v60.578h360.98V119.365a28.871,28.871,0,0,0-28.838-28.838h-16.17a31.794,31.794,0,0,1-31.735,30.681h-1.382A31.793,31.793,0,0,1,288.12,90.527Z"/><path d="M300.093,89.447a19.783,19.783,0,0,0,19.761,19.761h1.382A19.783,19.783,0,0,0,341,89.447V66.438a19.783,19.783,0,0,0-19.762-19.76h-1.382a19.783,19.783,0,0,0-19.761,19.76V89.447Z"/><path d="M93.981,89.447a19.783,19.783,0,0,0,19.761,19.761h1.382a19.783,19.783,0,0,0,19.762-19.761V66.438a19.783,19.783,0,0,0-19.762-19.76h-1.382a19.783,19.783,0,0,0-19.761,19.76V84.45c0,.026,0,.051,0,.077s0,.052,0,.078Z"/><path d="M325.766,389.15A81.821,81.821,0,0,1,321.2,355.4a86.687,86.687,0,0,1,25.641-55.155,80.961,80.961,0,0,1,51.14-23.126V191.943H37V396.031A28.872,28.872,0,0,0,65.838,424.87H349.4l-5.093-5.547A87.9,87.9,0,0,1,325.766,389.15Z"/><path d="M453.863,309.9a69.141,69.141,0,0,0-49.084-21.009c-.237,0-.475,0-.713,0-.029,0-.057,0-.087,0s-.041,0-.062,0a69.115,69.115,0,0,0-48.672,19.928,74.691,74.691,0,0,0-22.084,47.523,69.911,69.911,0,0,0,3.923,28.826,76,76,0,0,0,16.057,26.045l49.7,54.116,50.876-53.008a76.039,76.039,0,0,0,16.627-25.686A69.935,69.935,0,0,0,474.9,357.9,74.691,74.691,0,0,0,453.863,309.9Zm-22.492,74.351a38.321,38.321,0,0,1-27.335,11.439l-.432,0A38.318,38.318,0,0,1,376.1,383.639a40.112,40.112,0,0,1-11.06-28.278c.241-21.849,17.706-39.465,39.02-39.465h.424c21.509.238,38.811,18.327,38.569,40.324A40.107,40.107,0,0,1,431.371,384.247Z"/><path d="M404.35,327.9h-.291c-14.76,0-26.854,12.318-27.022,27.6a28.163,28.163,0,0,0,7.748,19.867,26.41,26.41,0,0,0,18.95,8.323h0a26.473,26.473,0,0,0,19.13-7.9,28.162,28.162,0,0,0,8.184-19.692C431.22,340.708,419.242,328.062,404.35,327.9Z"/></svg>
