<svg id="Capa_1" enable-background="new 0 0 512 512" height="512" viewBox="0 0 512 512" width="512" xmlns="http://www.w3.org/2000/svg" xmlns:xlink="http://www.w3.org/1999/xlink"><linearGradient id="SVGID_1_" gradientUnits="userSpaceOnUse" x1="256" x2="256" y1="481" y2="61"><stop offset="0" stop-color="#c3ffe8"/><stop offset=".9973" stop-color="#f0fff4"/></linearGradient><linearGradient id="SVGID_2_" gradientUnits="userSpaceOnUse" x1="256" x2="256" y1="481" y2="31"><stop offset="0" stop-color="#00b59c"/><stop offset="1" stop-color="#9cffac"/></linearGradient><g><g><g><path d="m165 121h12.299l13.745 30 17.457-30h94.999l16.524 30 14.677-30h12.299c8.401 0 15-6.601 15-15 0-8.401-6.599-15-15-15h-12.299l-14.343-30-16.858 30h-95l-17.457-30-13.745 30h-12.298c-8.401 0-15 6.599-15 15 0 8.399 6.599 15 15 15zm-60 180c8.291 0 15-6.709 15-15v-60c0-8.291-6.709-15-15-15s-15 6.709-15 15v60c0 8.291 6.709 15 15 15zm90 30c-8.401 0-15 6.599-15 15 0 8.399-6.599 15-15 15s-15-6.601-15-15c0-8.401-6.599-15-15-15s-15 6.599-15 15c0 8.399-6.599 15-15 15s-15-6.601-15-15c0-8.401-6.599-15-15-15s-15 6.599-15 15c0 8.399-6.599 15-15 15s-15-6.601-15-15c0-8.401-6.599-15-15-15s-15 6.599-15 15v120c0 8.399 6.599 15 15 15h75l15-30 15 30h75c8.401 0 15-6.601 15-15v-120c0-8.401-6.599-15-15-15zm212-30c8.291 0 15-6.709 15-15v-60c0-8.291-6.709-15-15-15s-15 6.709-15 15v60c0 8.291 6.709 15 15 15zm90 30c-8.401 0-15 6.599-15 15 0 8.399-6.599 15-15 15s-15-6.601-15-15c0-8.401-6.599-15-15-15s-15 6.599-15 15c0 8.399-6.599 15-15 15s-15-6.601-15-15c0-8.401-6.599-15-15-15s-15 6.599-15 15c0 8.399-6.599 15-15 15s-15-6.601-15-15c0-8.401-6.599-15-15-15s-15 6.599-15 15v120c0 8.399 6.599 15 15 15h75l15-30 15 30h75c8.401 0 15-6.601 15-15v-120c0-8.401-6.599-15-15-15z" fill="url(#SVGID_1_)"/></g></g><g><g><path d="m105 421c-8.401 0-15 6.599-15 15v45h30v-45c0-8.401-6.599-15-15-15zm60-150h-120c-24.814 0-45 20.186-45 45v30c0 24.814 20.186 45 45 45 11.514 0 22.031-4.351 30-11.484 15.937 14.268 44.062 14.268 60 0 7.969 7.134 18.486 11.484 30 11.484 24.814 0 45-20.186 45-45v-30c0-24.814-20.186-45-45-45zm272-120h-60c-19.501 0-36.301-12.601-42.299-30h-31.201c6.901 34.2 37.2 60 73.5 60h60c41.4 0 75-33.6 75-75s-33.6-75-75-75h-60c-36.301 0-66.599 25.8-73.5 60h31.201c5.999-17.401 22.798-30 42.299-30h60c24.901 0 45 20.099 45 45 0 24.899-20.099 45-45 45zm-362 30h60c36.301 0 66.599-25.8 73.5-60h-31.201c-5.999 17.399-22.798 30-42.299 30h-60c-24.901 0-45-20.101-45-45 0-24.901 20.099-45 45-45h60c19.501 0 36.301 12.599 42.299 30h31.201c-6.901-34.2-37.2-60-73.5-60h-60c-41.4 0-75 33.6-75 75s33.6 75 75 75zm332 240c-8.401 0-15 6.599-15 15v45h30v-45c0-8.401-6.599-15-15-15zm60-150h-120c-24.814 0-45 20.186-45 45v30c0 24.814 20.186 45 45 45 11.514 0 22.031-4.351 30-11.484 15.938 14.268 44.062 14.268 60 0 7.969 7.134 18.486 11.484 30 11.484 24.814 0 45-20.186 45-45v-30c0-24.814-20.186-45-45-45z" fill="url(#SVGID_2_)"/></g></g></g></svg>