<svg id="Capa_1" enable-background="new 0 0 512 512" height="512" viewBox="0 0 512 512" width="512" xmlns="http://www.w3.org/2000/svg"><g><g><circle cx="256" cy="267" fill="#e80054" r="245"/></g><g><circle cx="256" cy="312" fill="#ff4155" r="180"/></g><g><g><path d="m386 0h-260c-44.183 0-80 35.817-80 80v191.169c0 44.183 35.817 80 80 80h42.559c13.765 0 26.563 7.078 33.88 18.737l19.681 31.358c15.679 24.982 52.081 24.982 67.76 0l19.681-31.358c7.317-11.659 20.115-18.737 33.88-18.737h42.559c44.183 0 80-35.817 80-80v-191.169c0-44.183-35.817-80-80-80z" fill="#ffdd40"/></g><g><path d="m206.404 271.169v-191.169c0-44.183 35.817-80 80-80h-159.882c-44.183 0-80 35.817-80 80v191.169c0 44.183 35.817 80 80 80h42.559c13.765 0 26.563 7.078 33.88 18.737l19.681 31.358c15.679 24.982 52.081 24.982 67.76 0l19.681-31.358c7.317-11.659 20.115-18.737 33.88-18.737h-57.559c-44.183 0-80-35.818-80-80z" fill="#ffb332"/></g></g><g><g><g><g><path d="m364.763 255.584c-11.046 0-20-8.954-20-20v-100h-9.1c-11.046 0-20-8.954-20-20s8.954-20 20-20h29.1c11.046 0 20 8.954 20 20v120c0 11.046-8.954 20-20 20z" fill="#fff"/></g></g></g><g><path d="m364.763 215.584c-11.046 0-20-8.954-20-20v40c0 11.046 8.954 20 20 20s20-8.954 20-20v-40c0 11.046-8.954 20-20 20z" fill="#e9efff"/></g><g><circle cx="193.624" cy="227.383" fill="#e9efff" r="28.201"/></g><g><circle cx="193.624" cy="95.584" fill="#e9efff" r="15"/></g><g><path d="m258.566 212.229c4.008 6.665-.792 15.154-8.57 15.154h-112.744c-7.777 0-12.578-8.489-8.57-15.154 9.777-16.257 14.942-34.869 14.942-53.839v-12.806c0-27.614 22.386-50 50-50 27.614 0 50 22.386 50 50v12.806c0 18.97 5.166 37.582 14.942 53.839z" fill="#fff"/></g><g><path d="m158.574 212.229c9.777-16.257 14.942-34.869 14.942-53.839v-12.806c0-22.408 14.741-41.371 35.054-47.726-4.72-1.476-9.739-2.274-14.946-2.274-27.614 0-50 22.386-50 50v12.806c0 18.97-5.165 37.582-14.942 53.839-4.008 6.665.792 15.154 8.57 15.154h29.892c-7.777 0-12.578-8.489-8.57-15.154z" fill="#e9efff"/></g><g><path d="m273.037 162.868c-.305 0-.612-.019-.922-.057-4.111-.504-7.036-4.245-6.532-8.356 2.307-18.827-2.688-37.48-14.062-52.523-2.498-3.304-1.845-8.008 1.459-10.506s8.009-1.844 10.506 1.459c13.736 18.166 19.769 40.68 16.985 63.395-.465 3.801-3.7 6.588-7.434 6.588z" fill="#fff"/></g><g><path d="m114.212 162.868c-3.735 0-6.969-2.787-7.435-6.589-2.782-22.716 3.25-45.229 16.986-63.395 2.498-3.305 7.202-3.958 10.506-1.459 3.304 2.498 3.957 7.202 1.459 10.506-11.375 15.042-16.368 33.695-14.062 52.523.503 4.111-2.421 7.853-6.533 8.356-.309.04-.617.058-.921.058z" fill="#fff"/></g></g></g></svg>