<svg height="511pt" viewBox="1 0 511.999 511" width="511pt" xmlns="http://www.w3.org/2000/svg"><path d="m360.882812 376.460938h-345.886718c-8.28125 0-14.996094-6.714844-14.996094-14.996094v-345.886719c0-8.28125 6.714844-14.996094 14.996094-14.996094h345.886718c8.28125 0 14.996094 6.714844 14.996094 14.996094v345.886719c0 8.28125-6.714844 14.996094-14.996094 14.996094zm0 0" fill="#ffe046"/><path d="m360.882812.582031h-172.945312v375.878907h172.945312c8.28125 0 14.996094-6.714844 14.996094-14.996094v-345.886719c0-8.28125-6.714844-14.996094-14.996094-14.996094zm0 0" fill="#fdbf00"/><path d="m497.816406 512.332031h-243.921875c-7.832031 0-14.179687-6.714843-14.179687-14.996093v-302.898438c0-8.28125 6.347656-14.996094 14.179687-14.996094h243.921875c7.832032 0 14.183594 6.714844 14.183594 14.996094v302.898438c0 8.285156-6.351562 14.996093-14.183594 14.996093zm0 0" fill="#e1f6fd"/><path d="m497.816406 179.441406h-121.9375v332.890625h121.9375c7.832032 0 14.183594-6.714843 14.183594-14.996093v-302.898438c0-8.28125-6.351562-14.996094-14.183594-14.996094zm0 0" fill="#beebfa"/><path d="m438.417969 225.425781h-125.125c-7.507813 0-13.597657-5.832031-13.597657-13.03125v-46.914062c0-7.195313 6.089844-13.03125 13.597657-13.03125h125.125c7.511719 0 13.601562 5.832031 13.601562 13.03125v46.914062c0 7.199219-6.089843 13.03125-13.601562 13.03125zm0 0" fill="#1751a9"/><path d="m321.84375 337.929688c-3.835938 0-7.675781-1.460938-10.601562-4.390626l-14.996094-14.996093c-5.855469-5.855469-5.855469-15.347657 0-21.207031 5.855468-5.851563 15.351562-5.851563 21.207031 0l4.390625 4.394531 17.765625-17.761719c5.855469-5.855469 15.347656-5.855469 21.203125 0 5.859375 5.851562 5.859375 15.347656 0 21.203125l-28.363281 28.367187c-2.929688 2.929688-6.765625 4.390626-10.605469 4.390626zm0 0" fill="#62e3f8"/><path d="m444.863281 323.75h-35.546875c-8.28125 0-14.996094-6.714844-14.996094-14.996094s6.714844-14.996094 14.996094-14.996094h35.546875c8.28125 0 14.996094 6.714844 14.996094 14.996094s-6.714844 14.996094-14.996094 14.996094zm0 0" fill="#ca0000"/><path d="m321.84375 425.527344c-3.835938 0-7.675781-1.464844-10.601562-4.390625l-14.996094-14.996094c-5.855469-5.855469-5.855469-15.351563 0-21.207031 5.855468-5.855469 15.351562-5.855469 21.207031 0l4.390625 4.394531 17.765625-17.765625c5.855469-5.855469 15.347656-5.855469 21.203125 0 5.859375 5.855469 5.859375 15.351562 0 21.207031l-28.363281 28.367188c-2.929688 2.925781-6.765625 4.390625-10.605469 4.390625zm0 0" fill="#62e3f8"/><path d="m444.863281 411.34375h-35.546875c-8.28125 0-14.996094-6.714844-14.996094-14.996094s6.714844-14.992187 14.996094-14.992187h35.546875c8.28125 0 14.996094 6.710937 14.996094 14.992187s-6.714844 14.996094-14.996094 14.996094zm0 0" fill="#ca0000"/><path d="m237.855469 127.902344-49.917969-25.273438-49.917969 25.273438c-4.644531 2.355468-10.183593 2.125-14.621093-.601563-4.441407-2.730469-7.144532-7.566406-7.144532-12.777343v-99.027344c0-8.28125 6.714844-14.996094 14.996094-14.996094h113.382812c8.28125 0 14.992188 6.714844 14.992188 14.996094v99.027344c0 5.210937-2.703125 10.050781-7.140625 12.777343-2.402344 1.476563-7.980469 3.53125-14.628906.601563zm0 0" fill="#e69f34"/><path d="m244.628906.5h-56.691406v102.128906l49.917969 25.273438c6.648437 2.929687 12.226562.875 14.625-.601563 4.441406-2.730469 7.144531-7.566406 7.144531-12.777343v-99.027344c0-8.28125-6.714844-14.996094-14.996094-14.996094zm0 0" fill="#bb7c14"/><path d="m438.417969 152.449219h-62.539063v72.976562h62.539063c7.511719 0 13.601562-5.832031 13.601562-13.03125v-46.914062c0-7.195313-6.089843-13.03125-13.601562-13.03125zm0 0" fill="#001a48"/></svg>