<svg id="Layer_1_1_" enable-background="new 0 0 64 64" height="512" viewBox="0 0 64 64" width="512" xmlns="http://www.w3.org/2000/svg"><path d="m3 25 20-14v30h-20z" fill="#57a5ff"/><path d="m23 17 19-14v38h-19z" fill="#57a5ff"/><path d="m42 17 19-14v38h-19z" fill="#57a5ff"/><path d="m13 18v-8h-8v13.6z" fill="#57a5ff"/><path d="m42 17v24h5v-27.684z" fill="#529bf0"/><path d="m23 17v24h5v-27.684z" fill="#529bf0"/><path d="m5 20.6v3l8-5.6v-3z" fill="#529bf0"/><path d="m40.392 40.795c-1.503-1.127-3.369-1.795-5.392-1.795-2.024 0-3.886.676-5.39 1.804-2.188 1.642-3.61 4.25-3.61 7.196v9c0 2.209 1.791 4 4 4h11v-14h2.941c-.28-2.534-1.612-4.751-3.549-6.205z" fill="#ffd45a"/><path d="m40.392 40.795.292-1.343c.357-1.646 1.118-3.149 1.941-4.619.321-.573.457-1.262.326-1.994-.211-1.177-1.156-2.151-2.328-2.387-1.296-.261-2.481.315-3.122 1.283-.537-.81-1.455-1.345-2.5-1.345s-1.963.535-2.5 1.345c-.642-.968-1.827-1.543-3.122-1.283-1.172.236-2.117 1.21-2.328 2.387-.131.732.005 1.421.326 1.994.823 1.469 1.584 2.973 1.941 4.619l.294 1.352c1.502-1.128 3.364-1.804 5.388-1.804 2.023 0 3.889.668 5.392 1.795z" fill="#febe07"/><path d="m53 54h-4v-7h-5.059-2.941v14h1 19v-14h-8z" fill="#7a5324"/><path d="m49 47h4v7h-4z" fill="#ffd45a"/><path d="m40.392 37.795c-1.503-1.127-3.369-1.795-5.392-1.795-2.024 0-3.886.676-5.39 1.804-.213.16-.413.337-.611.514.124.371.233.748.317 1.133l.294 1.352c1.504-1.127 3.366-1.803 5.39-1.803 2.023 0 3.889.668 5.392 1.795l.292-1.343c.085-.39.195-.771.321-1.147-.198-.178-.401-.35-.613-.51z" fill="#edb107"/><path d="m29 58v-9c0-2.946 1.422-5.554 3.61-7.196 1.504-1.128 3.366-1.804 5.39-1.804.443 0 .878.038 1.304.1-1.279-.699-2.744-1.1-4.304-1.1-2.024 0-3.886.676-5.39 1.804-2.188 1.642-3.61 4.25-3.61 7.196v9c0 2.209 1.791 4 4 4h.38c-.839-.733-1.38-1.798-1.38-3z" fill="#febe07"/><path d="m41 58v3h1 19v-3h-19z" fill="#69471f"/><path d="m19.236 53.882c-.759-.728-1.236-1.747-1.236-2.882v-1.465c-.449.299-.917.573-1.424.79-1.006.431-2.145.431-3.151 0-.507-.217-.976-.491-1.424-.79v1.465c0 1.135-.477 2.154-1.236 2.882l4.235 2.118z" fill="#ffe5cf"/><path d="m17 37.049v-.049l.215 1.076c.459 2.294 2.446 3.964 4.785 4.022v-3.098c0-3.314-2.686-6-6-6h-2c-3.314 0-6 2.686-6 6v3.099l4.05-.044c2.742-.031 4.95-2.263 4.95-5.006z" fill="#633f0e"/><path d="m16.576 50.325c.507-.217.976-.491 1.424-.79 2.462-1.639 4-4.408 4-7.436-2.339-.058-4.326-1.728-4.785-4.022l-.215-1.077v.049c0 2.743-2.208 4.975-4.95 5.005l-4.05.045c0 3.028 1.538 5.797 4 7.436.449.299.917.573 1.424.79 1.007.431 2.145.431 3.152 0z" fill="#ffe5cf"/><path d="m16 33h-2c-3.314 0-6 2.686-6 6v1.901c0-3.314 2.686-6 6-6h2c3.314 0 6 2.686 6 6v-1.901c0-3.314-2.686-6-6-6z" fill="#754b11"/><path d="m16.857 55.071 2.379-1.19c-.759-.727-1.236-1.746-1.236-2.881v-1.465c-.449.299-.917.573-1.424.79-1.006.431-2.145.431-3.151 0-.507-.217-.976-.491-1.424-.79v1.165z" fill="#e8d0bc"/><path d="m25 56.38c-.733-.839-1.798-1.38-3-1.38-1.074 0-2.045-.429-2.764-1.118l-4.236 2.118-4.236-2.118c-.719.689-1.69 1.118-2.764 1.118-1.202 0-2.267.541-3 1.38-.615.703-1 1.612-1 2.62v2h11 11v-2c0-1.008-.385-1.917-1-2.62z" fill="#57a5ff"/><path d="m15 2h2v2h-2z" fill="#e3e3e3"/><path d="m20 2h2v2h-2z" fill="#e3e3e3"/><path d="m10 10h2c0-1.103.897-2 2-2h2v-2h-2c-2.206 0-4 1.794-4 4z" fill="#e3e3e3"/><path d="m13 2c-4.411 0-8 3.589-8 8h2c0-3.309 2.691-6 6-6z" fill="#e3e3e3"/><g fill="#fff"><path d="m29 18h3v2h-3z"/><path d="m35 18h3v2h-3z"/><path d="m29 22h3v2h-3z"/><path d="m35 22h3v2h-3z"/><path d="m48 18h3v2h-3z"/><path d="m54 18h3v2h-3z"/><path d="m48 22h3v2h-3z"/><path d="m54 22h3v2h-3z"/><path d="m36 45.051v-1.051h-2v1.351c-1.178.564-2 1.758-2 3.149 0 1.93 1.57 3.5 3.5 3.5.827 0 1.5.673 1.5 1.5s-.673 1.5-1.5 1.5-1.5-.673-1.5-1.5v-.5h-2v.5c0 1.391.822 2.585 2 3.149v1.351h2v-1.051c1.692-.245 3-1.691 3-3.449 0-1.93-1.57-3.5-3.5-3.5-.827 0-1.5-.673-1.5-1.5s.673-1.5 1.5-1.5 1.5.673 1.5 1.5v.5h2v-.5c0-1.758-1.308-3.204-3-3.449z"/></g></svg>