<svg height="512" viewBox="0 0 512 512" width="512" xmlns="http://www.w3.org/2000/svg"><g id="flat"><rect fill="#92d1f7" height="464" rx="14" width="256" x="24" y="24"/><path d="m192 56h88v112h-88z" fill="#41b2ff"/><path d="m200 392a8 8 0 0 1 -8-8v-60.686l-45.657-45.657a8 8 0 0 1 -2.343-5.657v-80a8 8 0 0 1 16 0v76.686l45.657 45.657a8 8 0 0 1 2.343 5.657v64a8 8 0 0 1 -8 8z" fill="#2ad3b3"/><path d="m176 392v32h48v-32l-24-24z" fill="#e2e2e2"/><path d="m192 424v-16a8 8 0 0 1 16 0v16z" fill="#029532"/><path d="m38 24h228a14 14 0 0 1 14 14v18a0 0 0 0 1 0 0h-256a0 0 0 0 1 0 0v-18a14 14 0 0 1 14-14z" fill="#e2e2e2"/><path d="m24 456h256a0 0 0 0 1 0 0v18a14 14 0 0 1 -14 14h-228a14 14 0 0 1 -14-14v-18a0 0 0 0 1 0 0z" fill="#e2e2e2"/><path d="m24 216h48v72h-48z" fill="#41b2ff"/><path d="m72 216h32v72h-32z" fill="#2c91ff"/><path d="m104 288 48 48v24h-128v-72z" fill="#41b2ff"/><path d="m152 360-32 64h-96v-64z" fill="#2c91ff"/><path d="m24 168h104v-112h-104z" fill="#2c91ff"/><path d="m190.4 156.8-38.4 51.2-38.4-51.2a48 48 0 0 1 -9.6-28.8 48 48 0 0 1 9.6-28.8 48 48 0 0 1 38.4-19.2 48 48 0 0 1 38.4 19.2 48 48 0 0 1 9.6 28.8 48 48 0 0 1 -9.6 28.8z" fill="#e82f3e"/><circle cx="152" cy="128" fill="#e2e2e2" r="16"/><path d="m200 216v48l48 48h32v-96z" fill="#2c91ff"/><path d="m248 312v48l16 16h16v-64z" fill="#41b2ff"/><path d="m312 112h32v-16h11.412a8 8 0 0 0 8-8v-32h-51.412z" fill="#fdc9a6"/><path d="m356.588 136 43.412 24h35.412v32h-43.412l-40-16z" fill="#fdc9a6"/><path d="m275.412 144 4.593-15.307a30 30 0 0 1 32.934-21.084l31.061 4.391.184.184a54 54 0 0 1 15.816 38.184v25.632l-4.588 96h-88l4.588-56z" fill="#ea9d2d"/><path d="m355.412 272 44.588 96-24 88h-32l8-80-24-56-4.588 56-35.412 80h-32l24-88-12.588-96z" fill="#683b0d"/><path d="m376 456 16 16v16h-48v-32z" fill="#e2e2e2"/><path d="m288 456 16 16v16h-48v-32z" fill="#e2e2e2"/><path d="m392 160h96v88h-96z" fill="#d18d28"/><path d="m320 160-8 32 123.412 40v8l16 8-16 24-147.729-43.393a32.122 32.122 0 0 1 -21.19-20 32.122 32.122 0 0 1 -1.165-17.551l10.084-47.056z" fill="#fdc9a6"/><path d="m312 48h80a8 8 0 0 1 0 16h-80z" fill="#ea9d2d"/><path d="m368 48h-56a24 24 0 0 1 24-24h8a24 24 0 0 1 24 24z" fill="#ea9d2d"/><path d="m176 400 24-24 24 24v-8l-24-24-24 24z" fill="#029532"/><path d="m248 456h8v32h-8z" fill="#cbcbcb"/><path d="m392 160h96v8h-96z" fill="#fbb540"/><path d="m424 160h32v40l-16-8-16 8z" fill="#e82f3e"/><path d="m424 160h32v8h-32z" fill="#ff3444"/></g></svg>