<svg xmlns="http://www.w3.org/2000/svg" xmlns:xlink="http://www.w3.org/1999/xlink" version="1.1" x="0px" y="0px" viewBox="0 0 100 125" enable-background="new 0 0 100 100" xml:space="preserve"><g><path d="M50,7.58c-16.01,0-28.99,11.48-28.99,28.99C21.01,61,50,70.83,50,95.83c0-25,28.99-35.35,28.99-59.26   C78.99,20.56,66.01,7.58,50,7.58z M68.68,33.3c-0.09,1.16-1.37,2.93-3.09,2.93c-0.29,0-0.439-0.05-0.85,1.17   c0,0-0.061,14.22-0.061,15.21c0,0.989-0.739,1.54-1.6,1.54c-5.21,0.01-21.29,0.04-26.3,0.05c-0.85,0-1.49-0.66-1.49-1.59   c0-0.94-0.02-15.21-0.02-15.21c-0.41-1.22-0.57-1.18-0.86-1.18c-1.72,0-3.01-1.76-3.1-2.92l-0.04-0.55h0.04c0,0-0.01-0.08,0-0.13   c0.04-0.11,0.12-0.19,0.21-0.26l4.22-10.91c0.07-0.21,0.26-0.35,0.47-0.35h27.58c0.21,0,0.4,0.14,0.47,0.34l4.28,10.96   c0.06,0.05,0.11,0.11,0.14,0.19c0.021,0.06,0.011,0.16,0.011,0.16h0.04L68.68,33.3z M60.35,36.23c-1.13,0-2.01-0.76-2.54-1.61   c-0.54,0.85-1.47,1.61-2.6,1.61c-1.14,0-2.07-0.76-2.6-1.61c-0.54,0.85-1.471,1.61-2.61,1.61c-1.13,0-2.06-0.76-2.6-1.61   c-0.53,0.85-1.46,1.61-2.59,1.61s-2.05-0.76-2.59-1.61c-0.53,0.85-1.44,1.61-2.57,1.61c-1,0-1.93-0.59-2.34-1.31v10.11h25.38V34.92   C62.28,35.64,61.35,36.23,60.35,36.23z M62.47,32.75l-3.08-10.84H56.44l1.85,10.84H62.47z M51.36,21.91H48.53l-0.61,10.84h4.03   L51.36,21.91z M43.58,21.91h-2.97l-3.05,10.84h4.13L43.58,21.91z" style="fill:navy"/></g><text x="0" y="115" fill="#000000" font-size="5px" font-weight="bold" font-family="'Helvetica Neue', Helvetica, Arial-Unicode, Arial, Sans-serif"></text><text x="0" y="120" fill="#000000" font-size="5px" font-weight="bold" font-family="'Helvetica Neue', Helvetica, Arial-Unicode, Arial, Sans-serif"></text></svg>