<svg xmlns="http://www.w3.org/2000/svg" xmlns:xlink="http://www.w3.org/1999/xlink" version="1.1" x="0px" y="0px" viewBox="0 0 64 80" enable-background="new 0 0 64 64" xml:space="preserve"><g><g><path d="M32,3c-10.77,0-19.5,8.66-19.5,19.33C12.5,42.38,32,61,32,61s19.5-18.62,19.5-38.67C51.5,11.66,42.77,3,32,3z M32,37.63    c-8.63,0-15.63-7-15.63-15.63S23.37,6.37,32,6.37s15.63,7,15.63,15.63S40.63,37.63,32,37.63z"/><path d="M27.813,28.01c1.37,0,2.49-1.05,2.62-2.38h-5.239C25.323,26.96,26.433,28.01,27.813,28.01z"/><path d="M42.263,27.34c0.99,0,1.82-0.75,1.94-1.71h-3.88C40.443,26.59,41.263,27.34,42.263,27.34z"/><path d="M41.073,20.71l-0.662,2.16l1.111-3.7l-0.569-1.96h0.649v-2.72h-3.13v0.93h-1.899c-0.28,0-0.5,0.22-0.5,0.5    s0.22,0.5,0.5,0.5h1.899v0.79h0.63v2.74l-1.17,3.99h-5.84V20.55h2.24v-1.74h-4.88c-2.045,0-3.856,0.938-5.06,2.402h-3.358    c-0.276,0-0.5,0.224-0.5,0.5s0.224,0.5,0.5,0.5h5.422c0.182,0,0.334-0.103,0.422-0.247c0.043,0.074,0.074,0.155,0.074,0.245    c0,0.28-0.22,0.5-0.5,0.5h-2.99c-0.36,0.81-0.56,1.72-0.56,2.67h16.739h0.021h5.21c0.03-2.189-1.351-4.02-3.29-4.67H41.073z"/><path d="M21.849,22.895h-2.222c-0.276,0-0.5,0.224-0.5,0.5s0.224,0.5,0.5,0.5h2.222c0.276,0,0.5-0.224,0.5-0.5    S22.125,22.895,21.849,22.895z"/><path d="M19.627,20.53h2.222c0.276,0,0.5-0.224,0.5-0.5s-0.224-0.5-0.5-0.5h-2.222c-0.276,0-0.5,0.224-0.5,0.5    S19.351,20.53,19.627,20.53z" style="fill:navy"/></g></g><text x="0" y="79" fill="#000000" font-size="5px" font-weight="bold" font-family="'Helvetica Neue', Helvetica, Arial-Unicode, Arial, Sans-serif"></text><text x="0" y="84" fill="#000000" font-size="5px" font-weight="bold" font-family="'Helvetica Neue', Helvetica, Arial-Unicode, Arial, Sans-serif"></text></svg>