<svg xmlns="http://www.w3.org/2000/svg" xmlns:xlink="http://www.w3.org/1999/xlink" version="1.1" x="0px" y="0px" viewBox="0 0 68 85" style="enable-background:new 0 0 68 68;" xml:space="preserve"><g><path d="M34,2c-10.8,0-19.5,8.8-19.5,19.5c0,10.4,17.9,42.6,18.6,44c0.2,0.3,0.5,0.5,0.9,0.5s0.7-0.2,0.9-0.5   c0.8-1.4,18.6-33.6,18.6-44C53.5,10.8,44.8,2,34,2z M34,35.1c-7.5,0-13.6-6.1-13.6-13.6S26.5,7.9,34,7.9S47.6,14,47.6,21.5   S41.5,35.1,34,35.1z"/><path d="M34,16.6c1.1,0,2,0.9,2,1.9c0,0.6,0.4,1,1,1c0.5,0,1-0.4,1-1c0-1.8-1.3-3.4-3-3.8v-0.3c0-0.5-0.5-1-1-1s-1,0.5-1,1v0.3   c-1.7,0.4-3,2-3,3.8c0,2.2,1.8,4,4,4c1.1,0,2,0.9,2,2c0,1.1-0.9,1.9-2,1.9s-2-0.9-2-1.9c0-0.6-0.4-1-1-1c-0.5,0-1,0.4-1,1   c0,1.8,1.3,3.4,3,3.8v0.3c0,0.5,0.5,1,1,1s1-0.5,1-1v-0.3c1.7-0.4,3-2,3-3.8c0-2.2-1.8-4-4-4c-1.1,0-2-0.9-2-2   C32,17.5,32.9,16.6,34,16.6z"/></g><text x="0" y="83" fill="#000000" font-size="5px" font-weight="bold" font-family="'Helvetica Neue', Helvetica, Arial-Unicode, Arial, Sans-serif">Created by Azam Ishaq</text><text x="0" y="88" fill="#000000" font-size="5px" font-weight="bold" font-family="'Helvetica Neue', Helvetica, Arial-Unicode, Arial, Sans-serif">from the Noun Project</text></svg>