<svg xmlns="http://www.w3.org/2000/svg" xmlns:xlink="http://www.w3.org/1999/xlink" version="1.1" x="0px" y="0px" viewBox="0 0 100 125" enable-background="new 0 0 100 100" xml:space="preserve"><path d="M56.42,28.366c0.239-0.191,0.191-0.479,0.048-0.67c-0.239-0.383-0.718-0.574-0.909-0.957  c0.144-0.574-0.335-0.957-0.335-1.532c-0.287,0.287-0.383,0.67-0.814,0.67c-0.335-0.287-0.383-0.574-0.191-0.862  c-0.191-0.191-0.335-0.335-0.479-0.479c-0.096-0.096-0.239-0.144-0.383-0.239c-0.096-0.048-0.191-0.048-0.287-0.096  c-0.383-0.144-0.335-0.144-0.431,0.239c-0.096,0.335-0.048,0.766-0.479,0.909c0.383,0.67,0.431,1.005-0.622,1.34  c0,0.287,0.048,0.574,0,0.862c0,0.144-0.191,0.239-0.287,0.335c-0.479-0.431-0.335-0.909-0.239-1.292  c-0.335-0.144-0.67-0.287-0.957-0.479c-0.191-0.096-0.335-0.287-0.479-0.383s-0.335-0.096-0.527-0.144  c-0.096-0.191,0.239-0.527-0.287-0.622c0.239-0.67,0.67-1.101,1.292-1.292c0.048,0,0.096-0.048,0.144-0.096  c0.144-0.144,0.239-0.239,0.479-0.239c0.239-0.048,0.479-0.239,0.718-0.383c-0.096,0.191-0.191,0.383-0.287,0.527  c0.048,0.048,0.096,0.144,0.191,0.287c0.144-0.096,0.335-0.191,0.479-0.287c0.144,0.144,0.287,0.335,0.527,0.144  c-0.287-0.335-0.574-0.67-0.814-0.957c0.287,0,0.527,0.048,0.766,0c0.239-0.048,0.527-0.144,0.239-0.527  c0.383-0.048,0.383-0.191,0.144-0.431c0.335,0,0.574,0.048,0.909,0.048c0.048,0.191,0.144,0.431,0.431,0.574  c0.335,0.191,0.335,0.383-0.048,0.622c-0.096,0.048-0.144,0.144-0.239,0.239c-0.239,0.239-0.622-0.191-0.957,0.239  c0.144,0.048,0.287,0.144,0.383,0.096c0.527-0.048,0.527,0,0.766,0.479c0.096,0.144,0.287,0.239,0.431,0.335  s0.335,0.191,0.527,0.287c0.048,0,0.048-0.048,0.096-0.048c-0.096-0.191-0.239-0.335-0.383-0.622  c0.239,0.191,0.431,0.287,0.622,0.431c0.191-0.287,0.191-0.479-0.048-0.718c-0.191-0.144-0.191-0.335-0.048-0.527  c0.144,0.191,0.287,0.383,0.479,0.574c0.191-0.144,0.383-0.287,0.574-0.431c-0.335-0.287-0.67-0.527-1.053-0.862  c0.144-0.048,0.239-0.096,0.287-0.096c0-0.096,0-0.239-0.048-0.335c-0.239-0.191-0.479-0.383-0.718-0.574  c-0.144-0.096-0.335-0.239-0.335-0.431c-0.048-0.383-0.335-0.335-0.574-0.431c-0.048,0-0.048,0.048-0.096,0.048  c0.048,0.096,0.144,0.239,0.191,0.335c-0.048,0-0.191,0-0.287,0c0-0.144,0-0.287,0-0.431c-0.191,0-0.431-0.048-0.622,0  c-0.144,0.048-0.239,0.287-0.383,0.431c-0.144-0.335,0.191-0.431,0.431-0.527c-0.383-0.191-0.957,0-1.101,0.335  c-0.048,0.096-0.096,0.287-0.048,0.383s0.191,0.144,0.287,0.191c0.096,0.048,0.191,0.048,0.335,0.096  c-0.287,0.239-0.527,0.479-0.862,0.766c0-0.096-0.048-0.239-0.048-0.335c0-0.096,0.048-0.239,0.096-0.335  c-0.048,0-0.048-0.048-0.096-0.048c-0.096,0.048-0.191,0.144-0.287,0.239c0.048-0.144,0.048-0.239,0.096-0.335  c-0.048,0-0.144-0.048-0.144-0.048c0.048-0.239,0.096-0.479,0.144-0.814c0.239-0.096,0.574-0.191,0.957-0.335  c-0.574-0.383-1.005-0.191-1.245,0.383c0-0.048-0.048-0.048-0.048-0.096c0.048-0.191,0.144-0.335,0.191-0.527  c-0.383-0.144-0.622-0.096-0.67,0.239c-0.048-0.048-0.096-0.096-0.144-0.096s-0.144,0-0.191,0.048c0,0.048,0,0.144,0.048,0.191  c0.048,0.096,0.144,0.239,0.239,0.335c0.096,0,0.239-0.048,0.431-0.096c-0.144,0.144-0.239,0.239-0.287,0.383  c-0.096,0.287-0.096,0.431-0.096,0.431c0.239,0.096,0.191,0.335,0.096,0.383c-0.144,0.144-0.383,0.239-0.574,0.048  c0,0-0.048-0.048-0.048-0.096c0.144,0,0.239,0,0.479-0.048c-0.096-0.191-0.191-0.335-0.239-0.431  c-0.191,0.096-0.335,0.144-0.479,0.239c0.096,0.048,0.144,0.096,0.191,0.144c-0.383,0.287-0.766,0.335-1.197,0.048  c-0.048-0.048-0.096-0.144-0.144-0.191c-0.048-0.048-0.096-0.144-0.191-0.239c0.287-0.096,0.718,0.527,0.957-0.096  c0.096,0,0.191,0,0.287,0.048c0-0.048,0.048-0.048,0.048-0.096c-0.096-0.144-0.191-0.287-0.383-0.431  c0.239-0.239,0.431-0.431,0.718-0.718c-0.239,0.048-0.431,0-0.622,0.096s-0.287,0.287-0.479,0.431  c0.048-0.144,0.048-0.239,0.096-0.335c-0.287,0.096-0.574-0.096-0.67-0.383c-0.718-0.335-1.197,0.144-1.771,0.431  c-0.048,0.048-0.048,0.144-0.096,0.335c0.335-0.096,0.622-0.191,0.957-0.335c-0.096,0.144-0.191,0.287-0.287,0.431  c0.239,0.048,0.431,0.048,0.67,0.048c0,0.048,0,0.048,0,0.096c-0.144,0-0.335,0-0.479,0c-0.096,0-0.239,0.096-0.335,0.144  c0.096,0.096,0.191,0.191,0.287,0.287c0,0,0,0.048,0,0.191c0.287,0,0.527-0.048,0.814-0.048c0,0.096-0.096,0.335,0.191,0.144  c-0.144,0.144-0.287,0.239-0.431,0.335c-0.144-0.574-0.766,0-1.053-0.335c0.144-0.048,0.239-0.048,0.335-0.096  c0-0.048,0-0.048,0.048-0.096c-0.191-0.048-0.431-0.144-0.622-0.191c-0.191-0.096-0.335-0.383-0.622-0.048c0-0.096,0-0.144,0-0.239  c-0.144,0.096-0.239,0.144-0.335,0.239c0.048-0.144,0.096-0.239,0.096-0.335c-0.048,0-0.048-0.048-0.048-0.048  c-0.383,0.096-0.814,0.144-1.149,0.287c-0.527,0.239-0.957-0.144-1.436-0.096c-0.191,0-0.383-0.048-0.574-0.096  c1.819-1.197,6.175-2.585,10.722-1.675c-0.048,0.096-0.096,0.191-0.144,0.287c0.191,0.048,0.383,0.144,0.574,0.191  c-0.191,0.048-0.383,0.096-0.574,0.191c0.096,0.048,0.191,0.096,0.239,0.144v0.048c-0.144,0-0.287,0-0.479,0  c0.096-0.096,0.144-0.144,0.191-0.191c-0.239-0.096-0.527-0.191-0.766-0.287c0,0.048-0.048,0.048-0.048,0.096  c0.096,0.048,0.239,0.144,0.335,0.191c-0.048,0.048-0.096,0.144-0.191,0.239c0,0.048,0.048,0.096,0.048,0.096  c0.479,0.144,1.005,0.239,1.484,0.383c0.191,0.048,0.335,0,0.239-0.239c0.527-0.048,1.053-0.431,1.628-0.191  c-0.096,0-0.144,0-0.191,0.048c0.048,0.096,0,0.239,0.096,0.335c0.096,0.144,0.239,0.239,0.431,0.287  c0.574,0.144,1.101,0.335,1.292,0.957c0.048,0.191,0,0.431,0.096,0.622c0.048,0.144,0.287,0.144,0.479,0.239  c0,0.048-0.048,0.048-0.048,0.096c-0.096-0.048-0.191-0.048-0.287-0.096c-0.191,0.335-0.191,0.335,0.527,0.431  c-0.048,0.096-0.048,0.144-0.096,0.191c-0.191,0.144-0.479,0.144-0.383,0.527c0.048,0.239,0.096,0.479,0.144,0.67  c0.096,0.287,0.239,0.574,0.383,0.862c0.096,0.239,0.191,0.479,0.527,0.479c0.096,0,0.239,0.191,0.335,0.335  c0.048,0.048,0.096,0.048,0.144,0.048c0.144-0.431,0.287-0.814,0.431-1.197c0.048-0.144,0.144-0.239,0.287-0.191  c0.239,0.048,0.479,0.048,0.67-0.239c0.048-0.048,0.191-0.096,0.287-0.096c0.144,0,0.287,0.048,0.431,0.048  c0.096,0,0.239-0.048,0.287-0.096c0.048-0.096,0-0.239-0.048-0.335c-0.096-0.239-0.191-0.527-0.239-0.814  c0.287,0.287,0.622,0.574,0.909,0.909c0.814,0.909,1.58,1.819,2.154,2.92c0.239,0.431,0.383,0.909,0.574,1.388  c0.048,0.144,0.191,0.287,0.287,0.431c0.048,0.048,0.048,0.096,0.096,0.144c0.096,0.287,0.191,0.622,0.335,0.909  c-0.144-0.096-0.287-0.096-0.287,0.191s-0.144,0.527-0.527,0.622c0.287,0.383,0.527,0.718,0.431,1.245  c-0.144-0.048-0.287-0.096-0.431-0.144c-0.096,0-0.239,0.096-0.239,0.096c0,0.383,0.048,0.766,0.096,1.149  c0,0.096,0.048,0.239,0.144,0.335c0.048,0.096,0.191,0.144,0.287,0.239c0.431-0.048,0.479-0.335,0.479-0.766  c0-0.239,0.096-0.479,0.191-0.718c0.096,0,0.191-0.048,0.287-0.096c0.239,0.766,0.67,1.532,0.527,2.489  c-0.096-0.144-0.191-0.191-0.191-0.287c-0.048-0.096,0-0.191,0-0.287c-0.048-0.144-0.048-0.383-0.144-0.383  c-0.191-0.048-0.431-0.048-0.527,0.096c-0.191,0.191-0.383,0.191-0.527,0.048c-0.096,0.191-0.239,0.383-0.335,0.527  c-0.096,0.191-0.096,0.383-0.144,0.574c-0.048,0.191-0.096,0.383-0.191,0.527c-0.479,0.431-0.574,1.053-0.814,1.58  c-0.048,0.096,0.048,0.287,0.048,0.383c-0.048,0.335-0.144,0.718-0.191,1.053c0,0.239,0.048,0.479,0.096,0.718  c0.096,0.239,0.191,0.479,0.335,0.718c0.144,0.191,0.287,0.383,0.479,0.574c0,0.048,0.144,0,0.144,0  c0.287-0.239,0.718-0.239,0.909-0.622l0.048-0.048c0.335,0.287,0.144,0.622,0.096,0.909c-0.718,2.872-2.441,5.074-4.547,7.037  c-2.154,1.915-4.643,3.159-7.467,3.782c-0.239,0.048-0.479,0-0.718-0.048c0.144-0.096,0.287-0.191,0.479-0.335  c-0.144-0.048-0.239-0.048-0.335-0.048c0.239-0.144,0.431-0.335,0.622-0.479c-0.096,0-0.191-0.048-0.335-0.048  c0.287-0.144,0.718,0.096,0.67-0.383c0.622-0.048,0.766-0.144,1.005-0.431c-0.048-0.096-0.096-0.191-0.144-0.287  c0.814,0.144,1.053-0.574,1.532-0.957c0.191-0.144,0.431-0.335,0.383-0.622c0-0.048,0.096-0.191,0.191-0.239  c0.335-0.191,0.766-0.383,1.053-0.574c0.239-0.191,0.479-0.431,0.622-0.718c0.144-0.287,0.191-0.67,0.335-1.005  c0.144-0.287,0.335-0.527,0.574-0.766c0.431-0.431,0.479-0.622,0.383-1.005c-0.239-0.144-0.383-0.287-0.574-0.335  c-0.239-0.096-0.479-0.096-0.718-0.144c-0.239,0-0.431-0.048-0.622-0.144c-0.335-0.144-0.67-0.191-1.053-0.287  c-0.048,0.048-0.144,0.144-0.239,0.191c0-0.048-0.048-0.048-0.048-0.048c0.096-0.191,0.431-0.239,0.239-0.574  c-0.239-0.479-0.527-0.909-1.101-0.909c-0.383,0-0.622-0.096-0.862-0.335c-0.096-0.144-0.287-0.144-0.431-0.287  c-0.191-0.144-0.335-0.287-0.479-0.479c-0.383,0.048-0.814,0.048-1.197,0.096c-0.239-0.144-0.431-0.287-0.574-0.431  c-0.144,0.096-0.239,0.191-0.383,0.335c-0.048-0.048-0.048-0.048-0.096-0.096c0.048-0.096,0.096-0.144,0.191-0.239l-0.048-0.048  c-0.574,0.191-1.197,0.383-1.484,1.053c-0.287-0.383-0.574-0.383-0.957-0.239c-0.335,0.144-0.814-0.335-0.718-0.718  c0.048-0.144,0.096-0.287,0.096-0.431c0.144-0.383,0.048-0.527-0.383-0.574c-0.287-0.048-0.622,0-1.005,0  c0.191-0.479,0.383-0.909,0.527-1.34c0.048-0.144,0.096-0.239-0.144-0.239s-0.479,0.048-0.718,0.096  c-0.048,0-0.144,0.144-0.144,0.239c-0.096,0.287-0.239,0.479-0.574,0.479c-0.335,0.048-0.574,0.096-0.814-0.191  s-0.383-0.67-0.335-1.053c0.048-0.431,0.096-0.814,0.191-1.245c0.048-0.144,0.239-0.287,0.431-0.431  c0.287-0.191,0.574-0.335,0.909-0.239c0.239,0.096,0.479,0.144,0.766,0.239c-0.144-0.383-0.096-0.479,0.287-0.479  c0.239,0,0.527-0.096,0.718,0.191c0,0,0.096,0,0.144,0c0.287-0.048,0.431,0.144,0.479,0.431s0.144,0.574,0.287,0.862  c0.096,0.144,0.191,0.144,0.287-0.048c0.191-0.335,0.048-0.622-0.048-0.957c-0.144-0.718-0.144-0.814,0.479-1.197  c0.287-0.191,0.574-0.383,0.862-0.622c0.144-0.144,0.191-0.335,0.191-0.574c-0.048-0.144,0-0.287,0.048-0.431  c0,0.096,0,0.144,0.048,0.287c0.239-0.383,0.431-0.766,0.67-1.101c0.287-0.096,0.622-0.191,0.957-0.335  c-0.191-0.239-0.144-0.527,0.096-0.622c0.383-0.191,0.814-0.335,1.197-0.431c-0.144,0.191-0.479,0.287-0.191,0.527  c0.479-0.191,0.957-0.431,1.436-0.622c-0.048-0.096-0.096-0.191-0.144-0.287c-0.144,0.096-0.287,0.287-0.431,0.239  c-0.144,0-0.383-0.144-0.479-0.287c-0.096-0.191,0-0.431,0.048-0.622c-0.335-0.383-0.718-0.048-1.101,0.048  c0.479-0.335,0.957-0.718,1.58-0.479c0.335,0.096,0.67,0.144,0.957-0.191C56.085,28.366,56.276,28.366,56.42,28.366  c-0.239,0.383-0.527,0.766-0.814,1.149c0.335,0.144,0.67-0.048,0.814,0.239c0.239,0.096,0.383,0.144,0.574,0.239  c0.096-0.191,0.144-0.335-0.048-0.383c0-0.191,0-0.335,0-0.383c-0.239-0.144-0.431-0.239-0.67-0.335  c0.096-0.144,0.191-0.287,0.335-0.431C56.563,28.366,56.516,28.366,56.42,28.366z M65.18,30.281  c-0.335-0.718-0.622-1.388-0.909-2.058c-0.048,0-0.096,0-0.144,0.048c0.048,0.287,0.144,0.527,0.191,0.766  c-0.048-0.048-0.096-0.096-0.287-0.191c0,0.287,0,0.527,0,0.718c0,0.096,0.048,0.191,0.096,0.239s0.144,0,0.191-0.048  s0.096-0.096,0.191-0.144c0.048,0.239,0.096,0.479,0.096,0.67C64.797,30.233,64.94,30.233,65.18,30.281z M48.378,37.269  c0.239-0.096,0.479-0.144,0.67-0.239c0.383,0.144,0.814,0.335,1.245,0.527c-0.048,0.096-0.048,0.191-0.096,0.287  c0.335-0.048,0.574-0.048,0.957-0.096c-0.144-0.144-0.191-0.191-0.239-0.239c-0.431-0.191-0.862-0.479-1.292-0.622  C49.192,36.695,48.665,36.743,48.378,37.269z M49.479,19.319c0.048-0.048,0.096-0.096,0.191-0.191  c-0.431,0.048-0.814,0.144-1.245,0.191c0.335,0.239,0.574,0.622,1.005,0.479c0.383-0.144,0.766,0.144,1.101-0.144  c-0.096-0.096-0.144-0.144-0.239-0.191c-0.048-0.048-0.144-0.048-0.191-0.048C49.862,19.75,49.67,19.51,49.479,19.319z   M51.537,38.035c-0.191,0.048-0.335,0.048-0.479,0.048c0.239,0.239,0.957,0.239,1.628,0c-0.335-0.287-1.149-0.527-1.245-0.335  C51.442,37.844,51.489,37.94,51.537,38.035z M61.733,25.35l-0.048,0.048c0.096,0.048,0.191,0.096,0.191,0.191  c0,0.287,0.144,0.431,0.335,0.574c0.191,0.144,0.431,0.191,0.574,0c0.048-0.048-0.096-0.287-0.191-0.431  c0-0.048-0.048-0.048-0.096-0.048C62.26,25.542,62.02,25.446,61.733,25.35z M50.867,19.558c0.096,0.096,0.191,0.335,0.287,0.335  c0.191,0,0.431-0.096,0.622-0.144c0-0.048,0-0.096-0.048-0.144C51.489,19.606,51.202,19.558,50.867,19.558z M53.404,22.574  c0.048,0.048,0.048,0.096,0.096,0.191c0.144-0.048,0.239-0.096,0.383-0.191c-0.048-0.048-0.096-0.191-0.096-0.191  C53.644,22.43,53.5,22.526,53.404,22.574z M39.283,23.292c-0.335,0.287-0.67,0.527-1.005,0.814  c-0.239,0.191-0.431,0.479-0.431,0.814c0,0.096,0.048,0.144,0.048,0.239c0.048,0,0.048,0,0.096,0  c-0.287,0.287-0.574,0.622-0.862,0.909l0.048,0.048c0.191-0.144,0.383-0.335,0.574-0.479c0.335-0.239,0.67-0.527,0.862-0.909  c0.048-0.048,0.144-0.191,0.335-0.096c0.144,0.048,0.479-0.191,0.574-0.335c0.144-0.239,0.239-0.144,0.335-0.048  c0.048,0.048,0.096,0.096,0.144,0.096c0.287,0,0.383,0.191,0.479,0.431c0,0.048,0.096,0.096,0.144,0.144  c-0.383,0.335-0.048,0.814-0.048,1.245c0.048-0.048,0.096-0.144,0.191-0.191h0.048c-0.048,0.239-0.096,0.479-0.144,0.718  c0,0,0.096,0,0.144,0c0,0.335,0,0.67,0,1.053c-0.048,0-0.144-0.048-0.287-0.144c0.048,0.144,0,0.287,0.096,0.335  c0.383,0.383,0.239,0.862,0.144,1.292c-0.096,0.335-0.287,0.67-0.383,1.005c-0.191,0.622-0.431,1.245-0.191,1.915  c0.096,0.287,0.096,0.574,0.144,0.862c0.048,0.144,0.144,0.239,0.239,0.335c0.191,0.144,0.335,0.287,0.383,0.574  c0.096,0.383,0.239,0.718,0.383,1.053c0.048,0.096,0.096,0.239,0.048,0.287c-0.239,0.239-0.048,0.287,0.096,0.431  s0.335,0.239,0.287,0.479c0,0.048,0.048,0.144,0.048,0.144c0.144,0.144,0.287,0.335,0.479,0.527c0-0.144,0.048-0.239,0-0.287  c-0.335-0.479-0.383-1.101-0.67-1.628c-0.144-0.239-0.287-0.431-0.144-0.814c0.096,0.144,0.191,0.239,0.239,0.383  c0.191,0.383,0.383,0.766,0.574,1.149c0.239,0.383,0.479,0.718,0.718,1.101c0.144,0.239,0.239,0.479,0.144,0.766  c-0.048,0.096,0.048,0.287,0.144,0.335c0.335,0.239,0.622,0.431,1.005,0.622c0.287,0.144,0.574,0.239,0.909,0.383  c0.096,0.048,0.191,0.048,0.239,0c0.287-0.191,0.479-0.048,0.67,0.144c0.335,0.383,0.766,0.431,1.197,0.574  c0.239,0.048,0.574,0.431,0.622,0.67c0,0.048,0.096,0.144,0.144,0.191c0.144,0.096,0.239,0.239,0.383,0.287  c0.287,0.144,0.574,0.191,0.862,0.287c0,0,0.048-0.144,0.096-0.191c0.048-0.096,0.144-0.144,0.239-0.191  c0.048,0.096,0.144,0.144,0.144,0.239c0.096,0.191,0.191,0.431,0.239,0.67c0.096,0.527-0.239,0.814-0.622,1.101  c-0.191,0.144-0.191,0.527-0.287,0.766c0,0,0.144,0.096,0.287,0.144c-0.287,0.191-0.527,0.383-0.383,0.67  c0.239,0.239,0.431,0.383,0.574,0.574c0.239,0.383,0.431,0.814,0.718,1.197c0.191,0.239,0.479,0.383,0.718,0.527  c0.814,0.383,0.766,0.431,0.718,1.292c-0.048,0.527-0.048,1.101-0.096,1.628c0,0.096,0,0.239-0.048,0.287  c-0.287,0.383-0.191,0.814-0.239,1.292c0.096-0.096,0.191-0.144,0.239-0.239c0.048,0,0.048,0.048,0.096,0.048  c-0.096,0.144-0.191,0.287-0.335,0.527c0.144,0.096,0.383,0.287,0.574,0.431c-1.149,0.144-2.346,0.191-3.542,0.096  c-2.537-0.239-4.93-1.005-7.132-2.346c-4.26-2.681-6.893-6.51-7.707-11.488c-0.814-5.074,0.527-9.621,3.925-13.499  c0.287-0.335,0.574-0.622,0.862-0.957C38.757,23.388,38.948,23.101,39.283,23.292z M50,7.375c-16.016,0-29,12.984-29,29  c0,16.016,29,56.25,29,56.25s29-40.234,29-56.25C79,20.359,66.016,7.375,50,7.375z M50,58.402c-12.74,0-23.069-10.328-23.069-23.069  S37.26,12.265,50,12.265s23.069,10.328,23.069,23.069S62.74,58.402,50,58.402z"/><text x="0" y="115" fill="#000000" font-size="5px" font-weight="bold" font-family="'Helvetica Neue', Helvetica, Arial-Unicode, Arial, Sans-serif">Created by Mattia Lombardini</text><text x="0" y="120" fill="#000000" font-size="5px" font-weight="bold" font-family="'Helvetica Neue', Helvetica, Arial-Unicode, Arial, Sans-serif">from the Noun Project</text></svg>