<svg xmlns="http://www.w3.org/2000/svg" xmlns:xlink="http://www.w3.org/1999/xlink" version="1.1" x="0px" y="0px" viewBox="0 0 100 125" style="enable-background:new 0 0 100 100;" xml:space="preserve"><style type="text/css">
	.st0{fill:#FF0000;}
	.st1{fill:#FFFFFF;}
</style><path d="M78,33C78,17.5,65.5,5,50,5S22,17.5,22,33c0,0.1,0,0.3,0,0.4h0c0,1.1,0.1,2.4,0.3,3.8c0,0.1,0,0.1,0,0.2  C25.2,55.9,50,68.2,50,95c0-26.8,24.8-39.1,27.7-57.7c0-0.1,0-0.1,0-0.2c0.2-1.4,0.3-2.6,0.3-3.8h0C78,33.3,78,33.1,78,33z M50,48.5  c-8.3,0-15-6.7-15-15c0-8.3,6.7-15,15-15s15,6.7,15,15C65,41.8,58.3,48.5,50,48.5z"/><text x="0" y="115" fill="#000000" font-size="5px" font-weight="bold" font-family="'Helvetica Neue', Helvetica, Arial-Unicode, Arial, Sans-serif">Created by AS Design</text><text x="0" y="120" fill="#000000" font-size="5px" font-weight="bold" font-family="'Helvetica Neue', Helvetica, Arial-Unicode, Arial, Sans-serif">from the Noun Project</text></svg>