<svg xmlns="http://www.w3.org/2000/svg" xmlns:xlink="http://www.w3.org/1999/xlink" version="1.1" x="0px" y="0px" viewBox="0 0 100 125" enable-background="new 0 0 100 100" xml:space="preserve"><g><path d="M53.95,42.13v-0.34h-0.97v-5.4c0-0.7-0.28-1.33-0.74-1.79c-0.45-0.45-1.09-0.74-1.79-0.74c-1.39,0-2.51,1.13-2.51,2.53v5.4   h-1.32v0.34c0,0.55-0.22,1.05-0.58,1.41c-0.03,0.03-0.06,0.06-0.09,0.08h8.67C54.21,43.26,53.95,42.72,53.95,42.13z M50,5.75   c-16.01,0-28.99,11.48-28.99,28.99C21.01,59.17,50,69,50,94c0-25,28.99-35.35,28.99-59.26C78.99,18.73,66.01,5.75,50,5.75z    M64.59,23.56c0.23,0,0.42-0.06,0.55-0.2c0.07-0.11,0.101-0.25,0.101-0.38c0-0.09-0.021-0.2-0.061-0.34   c-0.05-0.14-0.1-0.24-0.14-0.31l0.28,0.2c0.17,0.14,0.26,0.33,0.26,0.58c0,0.21-0.09,0.39-0.26,0.52l-0.391,0.14   c-0.18,0.05-0.38,0-0.609-0.14l-0.11-0.13C64.34,23.54,64.47,23.56,64.59,23.56z M58.69,36.05h0.06c0,0-0.74-7.3,4.64-8.48   l0.82-0.45h0.21v-1.71l0.48-0.71v-0.83l0.279-0.1v0.93l0.5,0.71v1.71h0.11l0.75,0.45c5.46,1.18,5.06,8.48,5.06,8.48h0.11v5.74   h-0.56v-1.75c0-0.03,0-0.06-0.011-0.08c0-0.06,0-0.12-0.01-0.17c-0.01-0.04-0.02-0.08-0.03-0.12c0-0.02-0.01-0.03-0.01-0.03   c-0.02-0.09-0.05-0.18-0.09-0.26c-0.07-0.15-0.16-0.28-0.27-0.4c-0.03-0.04-0.061-0.07-0.101-0.1c-0.03-0.04-0.08-0.07-0.12-0.1   c-0.04-0.03-0.09-0.06-0.14-0.09c-0.04-0.03-0.08-0.05-0.13-0.07c-0.021-0.01-0.05-0.02-0.07-0.03c-0.18-0.08-0.38-0.12-0.59-0.12   s-0.41,0.04-0.59,0.12c-0.03,0.01-0.07,0.03-0.101,0.05c-0.04,0.01-0.069,0.03-0.1,0.06c-0.07,0.03-0.13,0.07-0.18,0.13   c0-0.01-0.011,0.01-0.011,0.01c-0.06,0.04-0.119,0.09-0.159,0.15c-0.12,0.11-0.21,0.25-0.271,0.39c-0.04,0.08-0.07,0.17-0.09,0.26   c0,0-0.01,0.01-0.01,0.03c-0.011,0.04-0.021,0.08-0.03,0.12c-0.01,0.05-0.01,0.11-0.01,0.17c-0.011,0.02-0.011,0.05-0.011,0.08   v1.75h-0.77v-1.57c0-0.55-0.22-1.04-0.58-1.4c-0.35-0.36-0.86-0.59-1.4-0.59c-1.1,0-1.979,0.9-1.979,1.99v1.57H62.27l-0.02-1.75   c0-0.86-0.7-1.57-1.57-1.57c-0.859,0-1.56,0.71-1.56,1.57l0.01,1.75H58.69V36.05z M49.59,15.24c0.3,0,0.54-0.09,0.7-0.26   c0.09-0.14,0.14-0.31,0.14-0.48c0-0.11-0.03-0.26-0.09-0.44c-0.06-0.17-0.12-0.3-0.18-0.39l0.35,0.27   c0.221,0.18,0.351,0.41,0.351,0.73c0,0.27-0.13,0.48-0.351,0.65l-0.48,0.18c-0.23,0.06-0.49,0-0.78-0.18l-0.13-0.17   C49.29,15.21,49.45,15.24,49.59,15.24z M42.1,31.09h0.08c0,0-0.94-9.26,5.9-10.77l1.04-0.56h0.26v-2.17l0.61-0.91v-1.05l0.35-0.13   v1.18l0.65,0.91v2.17h0.13l0.96,0.56c6.91,1.5,6.43,10.77,6.43,10.77h0.12v10.7H52.98v-5.4c0-0.7-0.28-1.33-0.74-1.79   c-0.45-0.45-1.09-0.74-1.79-0.74c-1.39,0-2.51,1.13-2.51,2.53v5.4H42.1V31.09z M34.94,23.56c0.24,0,0.42-0.06,0.55-0.2   c0.07-0.11,0.11-0.25,0.11-0.38c0-0.09-0.02-0.2-0.07-0.34c-0.04-0.14-0.09-0.24-0.14-0.31l0.28,0.2c0.17,0.14,0.26,0.33,0.26,0.58   c0,0.21-0.09,0.39-0.26,0.52l-0.38,0.14c-0.19,0.05-0.38,0-0.62-0.14l-0.1-0.13C34.7,23.54,34.84,23.56,34.94,23.56z M33.75,27.57   l0.82-0.45h0.2v-1.71l0.48-0.71v-0.83l0.28-0.1v0.93l0.52,0.71v1.71h0.1l0.75,0.45c5.45,1.18,5.08,8.48,5.08,8.48l0.08,5.74h-0.5   l-0.05-1.75c0-0.86-0.7-1.57-1.57-1.57c-0.86,0-1.56,0.71-1.56,1.57l0.04,1.75h-0.81v-1.57c0-0.55-0.23-1.04-0.58-1.4   c-0.36-0.36-0.86-0.59-1.4-0.59c-1.1,0-1.99,0.9-1.99,1.99v1.57H32.6v-1.75c0-0.86-0.7-1.57-1.57-1.57c-0.86,0-1.56,0.71-1.56,1.57   v1.75h-0.4l0.04-5.74C29.11,36.05,28.37,28.75,33.75,27.57z M30.72,46.83l-2-3.21H72l-2,3.21H30.72z M53.95,42.13v-0.34h-0.97v-5.4   c0-0.7-0.28-1.33-0.74-1.79c-0.45-0.45-1.09-0.74-1.79-0.74c-1.39,0-2.51,1.13-2.51,2.53v5.4h-1.32v0.34   c0,0.55-0.22,1.05-0.58,1.41c-0.03,0.03-0.06,0.06-0.09,0.08h8.67C54.21,43.26,53.95,42.72,53.95,42.13z"/></g><path fill="none" d="M48.08,20.32l1.04-0.56h0.26 M50.99,19.76h0.13l0.96,0.56"/><path d="M46.62,36.16v5.97c0,0.55-0.22,1.05-0.58,1.41c-0.03,0.03-0.06,0.06-0.09,0.08h-2.63c-0.41-0.36-0.67-0.9-0.67-1.49v-5.97  c0-0.55,0.22-1.05,0.58-1.41s0.85-0.58,1.4-0.58C45.73,34.17,46.62,35.06,46.62,36.16z"/><path d="M57.93,36.16v5.97c0,0.55-0.22,1.05-0.58,1.41c-0.029,0.03-0.06,0.06-0.09,0.08h-2.64c-0.41-0.36-0.67-0.9-0.67-1.49v-5.97  c0-0.55,0.22-1.05,0.58-1.41c0.359-0.36,0.859-0.58,1.41-0.58C57.04,34.17,57.93,35.06,57.93,36.16z"/><path d="M62.248,40.036l0.02,1.749h-3.134l-0.019-1.749c0-0.86,0.702-1.562,1.563-1.562C61.548,38.474,62.248,39.176,62.248,40.036z  "/><path d="M71.153,40.036v1.749H68.02v-1.749c0-0.86,0.702-1.562,1.563-1.562C70.452,38.474,71.153,39.176,71.153,40.036z"/><path fill="none" d="M63.39,27.57l0.82-0.45h0.21 M65.68,27.12h0.11l0.75,0.45"/><path d="M62.315,42.865h-3.126l-0.056-1.08l-0.019-1.749c0-0.86,0.702-1.562,1.563-1.562c0.869,0,1.569,0.703,1.569,1.562  l0.02,1.749L62.315,42.865z"/><path d="M71.153,40.036v-0.081H68.02v0.081c0-0.86,0.702-1.562,1.563-1.562C70.452,38.474,71.153,39.176,71.153,40.036z"/><path d="M32.604,40.036v1.749h-3.134v-1.749c0-0.86,0.702-1.562,1.562-1.562C31.902,38.474,32.604,39.176,32.604,40.036z"/><path d="M41.556,41.785h-3.134l-0.047-1.749c0-0.86,0.702-1.562,1.562-1.562c0.87,0,1.571,0.703,1.571,1.562L41.556,41.785z"/><path fill="none" d="M33.75,27.57l0.82-0.45h0.2 M36.05,27.12h0.1l0.75,0.45"/><path d="M32.604,40.036v1.884h-3.134v-1.884c0-0.86,0.702-1.562,1.562-1.562C31.902,38.474,32.604,39.176,32.604,40.036z"/><path d="M41.696,42.649h-3.134l-0.14-0.864l-0.047-1.749c0-0.86,0.702-1.562,1.562-1.562c0.87,0,1.571,0.703,1.571,1.562  l0.047,1.749L41.696,42.649z"/><line fill="none" x1="45.95" y1="43.62" x2="43.32" y2="43.62"/><line fill="none" x1="57.26" y1="43.62" x2="54.62" y2="43.62"/><text x="0" y="115" fill="#000000" font-size="5px" font-weight="bold" font-family="'Helvetica Neue', Helvetica, Arial-Unicode, Arial, Sans-serif">Created by Ahmed Elzahra</text><text x="0" y="120" fill="#000000" font-size="5px" font-weight="bold" font-family="'Helvetica Neue', Helvetica, Arial-Unicode, Arial, Sans-serif">from the Noun Project</text></svg>