<svg xmlns="http://www.w3.org/2000/svg" xmlns:xlink="http://www.w3.org/1999/xlink" version="1.1" x="0px" y="0px" viewBox="0 0 100 125" enable-background="new 0 0 100 100" xml:space="preserve"><g><path d="M50,7.58c-16.01,0-28.99,12.98-28.99,28.99C21.01,61.8,50,70.83,50,95.83c0-25,28.99-35.35,28.99-59.26   C78.99,20.56,66.01,7.58,50,7.58z M60.25,61.259h-20.5V23.957c0-4.59,0.167-6.308,3.308-6.308h13.885   c3.308,0,3.308,1.717,3.308,6.308V61.259z"/></g><rect x="42.916" y="38.846" width="6" height="3.574"/><rect x="51.916" y="38.846" width="6" height="3.574"/><rect x="42.916" y="32.846" width="6" height="3.574"/><rect x="51.916" y="32.846" width="6" height="3.574"/><rect x="42.916" y="26.846" width="6" height="3.574"/><rect x="51.916" y="26.846" width="6" height="3.574"/><rect x="42.916" y="20.846" width="6" height="3.574"/><rect x="51.916" y="20.846" width="6" height="3.574"/><rect x="42.916" y="44.85" width="6" height="3.575"/><rect x="51.916" y="44.85" width="6" height="3.575"/><rect x="42.916" y="50.854" width="6" height="3.574"/><rect x="51.916" y="50.854" width="6" height="3.574"/><path d="M53.415,64.499c0,1.564-1.269,2.834-2.833,2.834l0,0c-1.564,0-2.833-1.27-2.833-2.834v-5.142  c0-1.565,1.269-2.833,2.833-2.833l0,0c1.564,0,2.833,1.268,2.833,2.833V64.499z"/><text x="0" y="115" fill="#000000" font-size="5px" font-weight="bold" font-family="'Helvetica Neue', Helvetica, Arial-Unicode, Arial, Sans-serif">Created by Ahmed Elzahra</text><text x="0" y="120" fill="#000000" font-size="5px" font-weight="bold" font-family="'Helvetica Neue', Helvetica, Arial-Unicode, Arial, Sans-serif">from the Noun Project</text></svg>