<svg xmlns="http://www.w3.org/2000/svg" xmlns:xlink="http://www.w3.org/1999/xlink" version="1.1" x="0px" y="0px" viewBox="0 0 100 125" style="enable-background:new 0 0 100 100;" xml:space="preserve"><g><g><path d="M50,26c-11.3,0-20.5,9.2-20.5,20.5S38.7,67,50,67s20.5-9.2,20.5-20.5S61.3,26,50,26z"/></g><g><path d="M50,5.6C27.5,5.6,9.2,23.9,9.2,46.5c0,14.1,7.2,26.5,18,33.9C33.7,84.8,50,95,50,95s16.3-10.3,22.8-14.7    c10.9-7.3,18-19.8,18-33.9C90.8,23.9,72.6,5.6,50,5.6z M50,71c-13.5,0-24.5-11-24.5-24.5C25.5,33,36.5,22,50,22s24.5,11,24.5,24.5    C74.5,60,63.5,71,50,71z"/></g></g><text x="0" y="115" fill="#000000" font-size="5px" font-weight="bold" font-family="'Helvetica Neue', Helvetica, Arial-Unicode, Arial, Sans-serif">Created by Viktor Vorobyev</text><text x="0" y="120" fill="#000000" font-size="5px" font-weight="bold" font-family="'Helvetica Neue', Helvetica, Arial-Unicode, Arial, Sans-serif">from the Noun Project</text></svg>