<svg style="fill:navy" xmlns="http://www.w3.org/2000/svg" data-name="Layer 1" viewBox="0 0 512 640" x="0px" y="0px"><title>Artboard 43</title><path d="M467.742,199l-37.521-40.909A12.611,12.611,0,0,0,420.973,154H410v45Z"/><path d="M149.278,106A99.477,99.477,0,0,0,137,116.369V233h48V106Z"/><path d="M92.129,219.52c0,4.476.016,9.48.426,13.48H127V126.743A139.192,139.192,0,0,0,92.129,219.52Z" style="fill:navy"/><path d="M335,313V274H102.775c6.022,14,14.367,28,24.563,39h19.089a35.71,35.71,0,0,1,70.719,0Z" style="fill:navy"/><path d="M335,243H93.854a153.759,153.759,0,0,0,5.185,21H335Z"/><path d="M343.4,323c-28.522,31-68.553,47.587-110.282,47.587-83.368,0-151.192-67.923-151.192-151.291S149.75,68.137,233.118,68.137C287.332,68.137,337.293,98,364.258,144h49.848C384.381,74,312.623,27.577,233.118,27.577c-107.653,0-195.236,83.761-195.236,186.557,0,32.978,10.288,67.691,30.578,103.272,16.369,28.7,39.232,57.957,67.956,87a665.25,665.25,0,0,0,96.7,80.23c15.757-10.552,96.957-66.868,149.329-142.8a36.031,36.031,0,0,1-8.9-18.829Z"/><path d="M181.787,292A25.717,25.717,0,1,0,207.5,317.721,25.747,25.747,0,0,0,181.787,292Z"/><rect x="389" y="154" width="11" height="45"/><path d="M408.907,292a25.717,25.717,0,1,0,25.718,25.718A25.747,25.747,0,0,0,408.907,292Z"/><rect x="459" y="234" width="15" height="16"/><rect x="195" y="106" width="52" height="127"/><path d="M345,313h28.548a35.711,35.711,0,0,1,70.72,0h17.3A12.709,12.709,0,0,0,474,300.168V260H457.327A8.447,8.447,0,0,1,449,251.4V231.923c0-4.693,3.635-7.923,8.327-7.923H474V209H345Zm16-88.629a5,5,0,1,1,10,0v6.295a5,5,0,0,1-10,0Zm0,25.295a5,5,0,1,1,10,0v37a5,5,0,0,1-10,0Z"/><path d="M283.931,106H257V233h52V130.779A24.9,24.9,0,0,0,283.931,106Z"/><rect x="345" y="154" width="34" height="45"/><text x="0" y="527" fill="#000000" font-size="5px" font-weight="bold" font-family="'Helvetica Neue', Helvetica, Arial-Unicode, Arial, Sans-serif"></text><text x="0" y="532" fill="#000000" font-size="5px" font-weight="bold" font-family="'Helvetica Neue', Helvetica, Arial-Unicode, Arial, Sans-serif" style="fill:navy" ></text></svg>