<svg width="79" height="79" viewBox="0 0 79 79" fill="none" xmlns="http://www.w3.org/2000/svg">
<circle cx="39.8108" cy="39.1607" r="38.9222" fill="#16449B"/>
<path d="M29.6986 20.9292C29.3417 20.9292 29.0508 21.2201 29.0508 21.577C29.0508 21.9338 29.3417 22.2247 29.6986 22.2247C30.0554 22.2247 30.3463 21.9338 30.3463 21.577C30.3463 21.2201 30.0554 20.9292 29.6986 20.9292Z" fill="white"/>
<path d="M59.662 46.804H58.9692V23.1964C58.9692 21.9758 57.9766 20.9832 56.756 20.9832H33.3763C33.0465 20.9832 32.7765 21.2501 32.7765 21.5829C32.7765 21.9158 33.0435 22.1827 33.3763 22.1827H56.756C57.3168 22.1827 57.7727 22.6386 57.7727 23.1964V46.804H21.8514V23.1964C21.8514 22.6356 22.3073 22.1827 22.8681 22.1827H26.1789C26.5088 22.1827 26.7787 21.9158 26.7787 21.5829C26.7787 21.2501 26.5118 20.9832 26.1789 20.9832H22.8681C21.6475 20.9832 20.6548 21.9758 20.6548 23.1964V46.804H19.9621C19.6322 46.804 19.3623 47.0709 19.3623 47.4038V50.6306C19.3623 52.0281 20.4989 53.1647 21.8964 53.1647H24.8354C25.1652 53.1647 25.4351 52.8978 25.4351 52.5649C25.4351 52.2321 25.1682 51.9652 24.8354 51.9652H21.8964C21.1587 51.9652 20.5589 51.3654 20.5589 50.6276V47.9976H35.3346L35.6555 49.0262C35.9464 49.9559 36.7951 50.5797 37.7668 50.5797H41.8483C42.82 50.5797 43.6717 49.9559 43.9596 49.0262L44.2805 47.9976H59.0562V50.6276C59.0562 51.3654 58.4564 51.9652 57.7187 51.9652H27.6424C27.3125 51.9652 27.0426 52.2321 27.0426 52.5649C27.0426 52.8978 27.3095 53.1647 27.6424 53.1647H57.7247C59.1222 53.1647 60.2588 52.0281 60.2588 50.6306V47.4038C60.2618 47.0709 59.9919 46.804 59.662 46.804ZM42.823 48.6723C42.691 49.0982 42.3012 49.3831 41.8543 49.3831H37.7698C37.3229 49.3831 36.9331 49.0982 36.8011 48.6723L36.5912 48.0006H43.0299L42.823 48.6723Z" fill="white"/>
<path d="M34.4052 35.4142C34.6901 35.4142 34.936 35.2133 34.993 34.9314L35.7188 31.2997C35.7547 31.1227 35.7098 30.9398 35.5958 30.8018C35.4818 30.6639 35.3109 30.5829 35.134 30.5829H30.5336C30.2037 30.5829 29.9338 30.8498 29.9338 31.1827C29.9338 31.5156 30.2007 31.7825 30.5336 31.7825H34.4022L33.9164 34.2146H29.259L28.4613 29.8632C28.4103 29.5783 28.1614 29.3713 27.8735 29.3713H26.4221C26.0922 29.3713 25.8223 29.6382 25.8223 29.9711C25.8223 30.304 26.0892 30.5709 26.4221 30.5709H27.3757L28.1644 34.8684V37.3965C28.1644 37.7264 28.4313 37.9963 28.7642 37.9963H28.7912C28.7732 38.0623 28.7642 38.1312 28.7642 38.2032C28.7642 38.65 29.1241 39.0099 29.5709 39.0099C29.9368 39.0099 30.2457 38.767 30.3447 38.4341C30.3686 38.3591 30.3806 38.2782 30.3806 38.1942C30.3806 38.1252 30.3716 38.0593 30.3567 37.9963H31.7002C31.6972 38.0083 31.6942 38.0203 31.6912 38.0323C31.6792 38.0862 31.6732 38.1462 31.6732 38.2032C31.6732 38.65 32.0331 39.0099 32.4799 39.0099C32.8698 39.0099 33.1966 38.734 33.2716 38.3651C33.2836 38.3112 33.2896 38.2542 33.2896 38.1942C33.2896 38.1252 33.2806 38.0593 33.2656 37.9963H33.4516C33.7814 37.9963 34.0513 37.7294 34.0513 37.3965C34.0513 37.0636 33.7844 36.7967 33.4516 36.7967H29.37V35.4142H34.4052Z" fill="white"/>
<path d="M42.5082 28.0368C42.5082 27.7069 42.2413 27.437 41.9084 27.437H39.3263C38.9965 27.437 38.7266 27.7039 38.7266 28.0368V30.6189C38.7266 30.9488 38.9935 31.2187 39.3263 31.2187H41.9084C42.2383 31.2187 42.5082 30.9518 42.5082 30.6189V28.0368ZM41.3116 30.0191H39.9291V28.6366H41.3116V30.0191Z" fill="white"/>
<path d="M44.4933 31.2184H49.9814C50.3113 31.2184 50.5812 30.9515 50.5812 30.6186C50.5812 30.2857 50.3143 30.0188 49.9814 30.0188H44.4933C44.1635 30.0188 43.8936 30.2857 43.8936 30.6186C43.8936 30.9515 44.1605 31.2184 44.4933 31.2184Z" fill="white"/>
<path d="M44.4933 28.6366H53.2082C53.5381 28.6366 53.808 28.3697 53.808 28.0368C53.808 27.7039 53.5411 27.437 53.2082 27.437H44.4933C44.1635 27.437 43.8936 27.7039 43.8936 28.0368C43.8936 28.3697 44.1605 28.6366 44.4933 28.6366Z" fill="white"/>
<path d="M42.5082 33.2009C42.5082 32.871 42.2413 32.6011 41.9084 32.6011H39.3263C38.9965 32.6011 38.7266 32.868 38.7266 33.2009V35.7829C38.7266 36.1128 38.9935 36.3827 39.3263 36.3827H41.9084C42.2383 36.3827 42.5082 36.1158 42.5082 35.7829V33.2009ZM41.3116 35.1832H39.9291V33.8006H41.3116V35.1832Z" fill="white"/>
<path d="M44.4933 36.3827H49.9814C50.3113 36.3827 50.5812 36.1158 50.5812 35.7829C50.5812 35.45 50.3143 35.1831 49.9814 35.1831H44.4933C44.1635 35.1831 43.8936 35.45 43.8936 35.7829C43.8936 36.1158 44.1605 36.3827 44.4933 36.3827Z" fill="white"/>
<path d="M44.4933 33.8006H53.2082C53.5381 33.8006 53.808 33.5337 53.808 33.2009C53.808 32.868 53.5411 32.6011 53.2082 32.6011H44.4933C44.1635 32.6011 43.8936 32.868 43.8936 33.2009C43.8936 33.5337 44.1605 33.8006 44.4933 33.8006Z" fill="white"/>
<path d="M41.9104 37.7651H39.3283C38.9984 37.7651 38.7285 38.032 38.7285 38.3649V40.947C38.7285 41.2769 38.9954 41.5468 39.3283 41.5468H41.9104C42.2403 41.5468 42.5102 41.2799 42.5102 40.947V38.3649C42.5072 38.035 42.2403 37.7651 41.9104 37.7651ZM41.3106 40.3472H39.9281V38.9647H41.3106V40.3472Z" fill="white"/>
<path d="M44.4933 40.3474C44.1635 40.3474 43.8936 40.6143 43.8936 40.9472C43.8936 41.2801 44.1605 41.547 44.4933 41.547H49.9814C50.3113 41.547 50.5812 41.2801 50.5812 40.9472C50.5812 40.6143 50.3143 40.3474 49.9814 40.3474H44.4933Z" fill="white"/>
<path d="M53.8051 38.3649C53.8051 38.035 53.5382 37.7651 53.2053 37.7651H44.4904C44.1605 37.7651 43.8906 38.032 43.8906 38.3649C43.8906 38.6978 44.1575 38.9647 44.4904 38.9647H53.2053C53.5382 38.9647 53.8051 38.6978 53.8051 38.3649Z" fill="white"/>
</svg>
