<svg width="78" height="79" viewBox="0 0 78 79" fill="none" xmlns="http://www.w3.org/2000/svg">
<circle cx="39.0003" cy="39.1607" r="38.9222" fill="#16449B"/>
<path d="M55.7874 47.4617C55.3945 47.4617 55.0742 47.782 55.0742 48.1749C55.0742 48.5678 55.3945 48.8881 55.7874 48.8881C56.1803 48.8881 56.5006 48.5678 56.5006 48.1749C56.5006 47.7787 56.1803 47.4617 55.7874 47.4617Z" fill="white"/>
<path d="M55.7448 45.3121C56.1609 45.3121 56.501 44.972 56.501 44.5526V26.6762C56.501 23.9125 54.2524 21.6606 51.4887 21.6606H26.5165C23.7529 21.6606 21.501 23.9125 21.501 26.6762V51.6484C21.501 54.4121 23.7529 56.6606 26.5165 56.6606H51.4887C54.2524 56.6606 56.501 54.4121 56.501 51.6484C56.501 51.229 56.1609 50.889 55.7448 50.889C55.3255 50.889 54.9854 51.229 54.9854 51.6484C54.9854 53.5767 53.417 55.1451 51.4887 55.1451H26.5165C24.5882 55.1451 23.0198 53.5767 23.0198 51.6484V26.6762C23.0198 24.7479 24.5882 23.1795 26.5165 23.1795H51.4887C53.417 23.1795 54.9854 24.7479 54.9854 26.6762V44.5526C54.9854 44.972 55.3255 45.3121 55.7448 45.3121ZM34.7448 40.4616H29.4255C29.0062 40.4616 28.6661 40.8017 28.6661 41.221C28.6661 41.6371 29.0062 41.9772 29.4255 41.9772H35.042L28.0387 48.9838C27.8934 49.1257 27.8142 49.3172 27.8142 49.5187C27.8142 49.7234 27.8934 49.9116 28.0387 50.0569C28.326 50.3408 28.8246 50.3408 29.1118 50.0569L36.1151 43.0503V48.6668C36.1151 49.0861 36.4552 49.4262 36.8746 49.4262C37.2939 49.4262 37.634 49.0861 37.634 48.6668V43.3474C37.634 41.7559 36.3363 40.4616 34.7448 40.4616ZM50.2604 28.5913C50.2604 28.3899 50.1812 28.1984 50.0359 28.0564C49.7519 27.7691 49.25 27.7691 48.9661 28.0564L41.9595 35.0597V29.4432C41.9595 29.0239 41.6194 28.6838 41.2 28.6838C40.784 28.6838 40.4439 29.0239 40.4439 29.4432V34.7625C40.4439 36.354 41.7382 37.6517 43.3297 37.6517H48.6491C49.0684 37.6517 49.4085 37.3116 49.4085 36.8923C49.4085 36.4729 49.0684 36.1328 48.6491 36.1328H43.0326L50.0392 29.1295C50.1812 28.9842 50.2604 28.796 50.2604 28.5913Z" fill="white"/>
</svg>
