<svg width="79" height="79" viewBox="0 0 79 79" fill="none" xmlns="http://www.w3.org/2000/svg">
<circle cx="39.1898" cy="39.1607" r="38.9222" fill="#16449B"/>
<path d="M38.0124 21.6428C37.707 21.6428 37.458 21.8918 37.458 22.1972C37.458 22.5026 37.707 22.7516 38.0124 22.7516C38.3178 22.7516 38.5668 22.5026 38.5668 22.1972C38.5693 21.8918 38.3204 21.6428 38.0124 21.6428Z" fill="white"/>
<path d="M43.5948 25.8108H30.1461C29.8638 25.8108 29.6328 26.0392 29.6328 26.3241C29.6328 26.609 29.8612 26.8374 30.1461 26.8374H43.5948C43.8771 26.8374 44.1081 26.609 44.1081 26.3241C44.1081 26.0392 43.8771 25.8108 43.5948 25.8108Z" fill="white"/>
<path d="M43.5948 30.9236H30.1461C29.8638 30.9236 29.6328 31.152 29.6328 31.4369C29.6328 31.7218 29.8612 31.9502 30.1461 31.9502H43.5948C43.8771 31.9502 44.1081 31.7218 44.1081 31.4369C44.1081 31.152 43.8771 30.9236 43.5948 30.9236Z" fill="white"/>
<path d="M43.5948 36.0359H30.1461C29.8638 36.0359 29.6328 36.2643 29.6328 36.5492C29.6328 36.8341 29.8612 37.0625 30.1461 37.0625H43.5948C43.8771 37.0625 44.1081 36.8341 44.1081 36.5492C44.1081 36.2643 43.8771 36.0359 43.5948 36.0359Z" fill="white"/>
<path d="M47.0826 42.8887C47.365 42.8887 47.596 42.6603 47.596 42.3754V42.1393C47.596 41.857 47.3675 41.626 47.0826 41.626C46.7978 41.626 46.5693 41.8544 46.5693 42.1393V42.3754C46.5693 42.6603 46.7978 42.8887 47.0826 42.8887Z" fill="white"/>
<path d="M50.2066 43.2224L50.0398 43.3892C49.8396 43.5894 49.8396 43.9154 50.0398 44.113C50.24 44.3132 50.5634 44.3132 50.7636 44.113L50.9304 43.9462C51.1306 43.746 51.1306 43.42 50.9304 43.2224C50.7328 43.0222 50.4068 43.0222 50.2066 43.2224Z" fill="white"/>
<path d="M51.2666 47.0721C51.2666 47.3545 51.495 47.5855 51.7799 47.5855H52.016C52.2984 47.5855 52.5293 47.357 52.5293 47.0721C52.5293 46.7873 52.3009 46.5588 52.016 46.5588H51.7799C51.495 46.5614 51.2666 46.7898 51.2666 47.0721Z" fill="white"/>
<path d="M42.3861 46.5613H42.15C41.8677 46.5613 41.6367 46.7897 41.6367 47.0746C41.6367 47.3595 41.8651 47.5879 42.15 47.5879H42.3861C42.6685 47.5879 42.8995 47.3595 42.8995 47.0746C42.8995 46.7897 42.6685 46.5613 42.3861 46.5613Z" fill="white"/>
<path d="M50.7655 50.0312C50.5653 49.8311 50.2394 49.8311 50.0417 50.0312C49.8416 50.2314 49.8416 50.5574 50.0417 50.755L50.2086 50.9218C50.4088 51.122 50.7321 51.122 50.9323 50.9218C51.1325 50.7216 51.1325 50.3957 50.9323 50.1981L50.7655 50.0312Z" fill="white"/>
<path d="M47.0826 51.2581C46.8003 51.2581 46.5693 51.4865 46.5693 51.7714V52.0075C46.5693 52.2898 46.7978 52.5208 47.0826 52.5208C47.3675 52.5208 47.596 52.2924 47.596 52.0075V51.7714C47.596 51.4865 47.365 51.2581 47.0826 51.2581Z" fill="white"/>
<path d="M43.397 50.0312L43.2302 50.1981C43.03 50.3983 43.03 50.7242 43.2302 50.9244C43.4304 51.1246 43.7564 51.1246 43.9566 50.9244L44.1234 50.7576C44.3236 50.5574 44.3236 50.2314 44.1234 50.0312C43.9232 49.8311 43.5972 49.8311 43.397 50.0312Z" fill="white"/>
<path d="M43.9566 43.2224C43.7564 43.0222 43.4304 43.0222 43.2302 43.2224C43.03 43.4226 43.03 43.7485 43.2302 43.9487L43.397 44.1156C43.5972 44.3158 43.9232 44.3158 44.1234 44.1156C44.3236 43.9154 44.3236 43.5894 44.1234 43.3892L43.9566 43.2224Z" fill="white"/>
<path d="M48.4795 46.5615H47.594V44.3671C47.594 44.0847 47.3656 43.8538 47.0807 43.8538C46.7958 43.8538 46.5674 44.0822 46.5674 44.3671V47.0722C46.5674 47.3545 46.7958 47.5855 47.0807 47.5855H48.4769C48.7592 47.5855 48.9902 47.3571 48.9902 47.0722C48.9902 46.7873 48.7643 46.5615 48.4795 46.5615Z" fill="white"/>
<path d="M54.8826 41.4592C54.7158 41.2308 54.3975 41.1769 54.1665 41.3437C53.9381 41.5105 53.8842 41.8288 54.051 42.0598C55.1085 43.5253 55.668 45.2603 55.668 47.0748C55.668 51.8075 51.8181 55.6599 47.0829 55.6599C42.3502 55.6599 38.4978 51.8101 38.4978 47.0748C38.4978 42.3421 42.3476 38.4897 47.0829 38.4897C49.1695 38.4897 51.1816 39.2494 52.7472 40.6251C52.9603 40.8124 53.2836 40.7919 53.471 40.5789C53.6584 40.3658 53.6378 40.0425 53.4248 39.8551C51.7386 38.3716 49.5904 37.5298 47.3523 37.4682V29.4555H51.7309C52.2776 29.4555 52.7216 29.0114 52.7216 28.4648V24.8921C52.7216 23.0904 51.2304 21.6942 49.5775 21.6942H40.3508C40.0685 21.6942 39.8375 21.9226 39.8375 22.2075C39.8375 22.4924 40.0659 22.7208 40.3508 22.7208H47.1804C46.6517 23.2906 46.3257 24.0554 46.3257 24.8921V37.4939C43.5693 37.7095 41.1362 39.0928 39.5218 41.1486H30.1462C29.8639 41.1486 29.6329 41.3771 29.6329 41.6619C29.6329 41.9468 29.8613 42.1753 30.1462 42.1753H38.8186C38.236 43.1531 37.8228 44.2413 37.62 45.3988H27.0073V24.3403C27.0073 23.4472 27.7362 22.7183 28.6294 22.7183H35.4744C35.7567 22.7183 35.9877 22.4898 35.9877 22.205C35.9877 21.9201 35.7593 21.6917 35.4744 21.6917H28.6294C27.169 21.6917 25.9833 22.88 25.9833 24.3378V45.3963H22.2028C21.9204 45.3963 21.6895 45.6247 21.6895 45.9096V46.9028C21.6895 49.2795 23.6221 51.2095 25.9961 51.2095H27.6464C27.9287 51.2095 28.1597 50.9811 28.1597 50.6962C28.1597 50.4113 27.9313 50.1829 27.6464 50.1829H25.9961C24.1867 50.1829 22.7135 48.7097 22.7135 46.9003V46.4203H37.4917C37.4763 46.6359 37.4686 46.8515 37.4686 47.0697C37.4686 48.1579 37.6508 49.2076 37.987 50.1829H29.6971C29.4148 50.1829 29.1838 50.4113 29.1838 50.6962C29.1838 50.9811 29.4122 51.2095 29.6971 51.2095H38.4079C39.9581 54.4408 43.2613 56.6788 47.0803 56.6788C52.3802 56.6788 56.6894 52.367 56.6894 47.0697C56.692 45.0421 56.0658 43.1018 54.8826 41.4592ZM51.6949 24.8896V28.4288H47.3523V24.8896C47.3523 23.691 48.3276 22.7183 49.5236 22.7183C50.7197 22.7183 51.6949 23.6936 51.6949 24.8896Z" fill="white"/>
</svg>
