<svg width="79" height="79" viewBox="0 0 79 79" fill="none" xmlns="http://www.w3.org/2000/svg">
<circle cx="39.8108" cy="39.6856" r="38.9222" fill="#16449B"/>
<path d="M43.8118 43.2574C43.8118 41.0496 42.015 39.2554 39.8097 39.2554C37.6018 39.2554 35.8076 41.0496 35.8076 43.2574C35.8076 45.4653 37.6018 47.2595 39.8097 47.2595C42.015 47.2595 43.8118 45.4653 43.8118 43.2574ZM39.8097 46.1401C38.2197 46.1401 36.9245 44.8474 36.9245 43.2574C36.9245 41.6675 38.2197 40.3748 39.8097 40.3748C41.3997 40.3748 42.6923 41.6675 42.6923 43.2574C42.6923 44.8474 41.3997 46.1401 39.8097 46.1401Z" fill="white"/>
<path d="M28.5173 39.2554C26.3095 39.2554 24.5127 41.0496 24.5127 43.2574C24.5127 45.4653 26.3095 47.2595 28.5173 47.2595C30.7226 47.2595 32.5194 45.4653 32.5194 43.2574C32.5194 41.0496 30.7226 39.2554 28.5173 39.2554ZM28.5173 46.1401C26.9274 46.1401 25.6321 44.8474 25.6321 43.2574C25.6321 41.6675 26.9274 40.3748 28.5173 40.3748C30.1073 40.3748 31.4 41.6675 31.4 43.2574C31.4 44.8474 30.1073 46.1401 28.5173 46.1401Z" fill="white"/>
<path d="M51.1027 39.2554C48.8948 39.2554 47.1006 41.0496 47.1006 43.2574C47.1006 45.4653 48.8948 47.2595 51.1027 47.2595C53.3105 47.2595 55.1047 45.4653 55.1047 43.2574C55.1047 41.0496 53.3105 39.2554 51.1027 39.2554ZM51.1027 46.1401C49.5127 46.1401 48.22 44.8474 48.22 43.2574C48.22 41.6675 49.5127 40.3748 51.1027 40.3748C52.6926 40.3748 53.9879 41.6675 53.9879 43.2574C53.9879 44.8474 52.6926 46.1401 51.1027 46.1401Z" fill="white"/>
<path d="M51.1032 47.5181C48.8074 47.5181 46.6358 48.8288 45.5706 50.8557L45.4569 51.0729L45.3431 50.8557C44.278 48.8288 42.1063 47.5181 39.8105 47.5181C37.5148 47.5181 35.3431 48.8288 34.278 50.8557L34.1642 51.0729L34.0479 50.8557C32.9853 48.8288 30.8136 47.5181 28.5179 47.5181C25.0949 47.5181 22.3105 50.2404 22.3105 53.5858V56.7554C22.3105 57.0631 22.5613 57.3138 22.869 57.3138H56.7495C57.0572 57.3138 57.3105 57.0631 57.3105 56.7554V53.5858C57.3105 50.2404 54.5262 47.5181 51.1032 47.5181ZM33.6032 56.1944H23.43V53.5858C23.43 50.9048 25.7594 48.6375 28.5179 48.6375C31.2738 48.6375 33.6032 50.9048 33.6032 53.5858V56.1944ZM44.8984 56.1944H34.7226V53.5858C34.7226 50.9048 37.052 48.6375 39.8105 48.6375C42.5665 48.6375 44.8984 50.9048 44.8984 53.5858V56.1944ZM56.1911 56.1944H46.0153V53.5858C46.0153 50.9048 48.3447 48.6375 51.1032 48.6375C53.8617 48.6375 56.1911 50.9048 56.1911 53.5858V56.1944Z" fill="white"/>
<path d="M39.8104 26.4475C38.7427 26.4475 37.874 27.3162 37.874 28.3839C37.874 29.4516 38.7427 30.3203 39.8104 30.3203C40.8782 30.3203 41.7468 29.4516 41.7468 28.3839C41.7468 27.3162 40.8782 26.4475 39.8104 26.4475ZM39.8104 29.2009C39.358 29.2009 38.9909 28.8338 38.9909 28.3839C38.9909 27.9315 39.358 27.5644 39.8104 27.5644C40.2603 27.5644 40.6274 27.9315 40.6274 28.3839C40.6274 28.8338 40.2603 29.2009 39.8104 29.2009Z" fill="white"/>
<path d="M34.3016 26.4475C33.2339 26.4475 32.3652 27.3162 32.3652 28.3839C32.3652 29.4516 33.2339 30.3203 34.3016 30.3203C35.3694 30.3203 36.238 29.4516 36.238 28.3839C36.238 27.3162 35.3694 26.4475 34.3016 26.4475ZM34.3016 29.2009C33.8518 29.2009 33.4847 28.8338 33.4847 28.3839C33.4847 27.9315 33.8518 27.5644 34.3016 27.5644C34.7515 27.5644 35.1186 27.9315 35.1186 28.3839C35.1186 28.8338 34.7515 29.2009 34.3016 29.2009Z" fill="white"/>
<path d="M45.3202 26.4475C44.2525 26.4475 43.3838 27.3162 43.3838 28.3839C43.3838 29.4516 44.2525 30.3203 45.3202 30.3203C46.3879 30.3203 47.2566 29.4516 47.2566 28.3839C47.2566 27.3162 46.3879 26.4475 45.3202 26.4475ZM45.3202 29.2009C44.8678 29.2009 44.5006 28.8338 44.5006 28.3839C44.5006 27.9315 44.8678 27.5644 45.3202 27.5644C45.77 27.5644 46.1372 27.9315 46.1372 28.3839C46.1372 28.8338 45.77 29.2009 45.3202 29.2009Z" fill="white"/>
<path d="M40.3685 22.8748C40.3685 23.1825 40.1177 23.4333 39.81 23.4333C39.5024 23.4333 39.249 23.1825 39.249 22.8748C39.249 22.5672 39.5024 22.3164 39.81 22.3164C40.1177 22.3164 40.3685 22.5672 40.3685 22.8748Z" fill="white"/>
<path d="M39.8098 22.0576C39.3574 22.0576 38.9902 22.4221 38.9902 22.8746C38.9902 23.3244 39.3574 23.6915 39.8098 23.6915C40.2596 23.6915 40.6267 23.3244 40.6267 22.8746C40.6267 22.4221 40.2596 22.0576 39.8098 22.0576ZM39.8098 23.433C39.5021 23.433 39.2488 23.1822 39.2488 22.8746C39.2488 22.5669 39.5021 22.3161 39.8098 22.3161C40.1174 22.3161 40.3682 22.5669 40.3682 22.8746C40.3682 23.1822 40.1174 23.433 39.8098 23.433Z" fill="white"/>
<path d="M54.1409 28.3839C54.1409 31.7293 51.4186 34.4516 48.0732 34.4516H41.553L40.3224 37.2826C40.2345 37.4868 40.0329 37.6186 39.8105 37.6186C39.5882 37.6186 39.3865 37.4868 39.2986 37.2826L38.068 34.4516H31.5479C28.1999 34.4516 25.4775 31.7293 25.4775 28.3839C25.4775 25.0385 28.1999 22.3162 31.5479 22.3162H36.7107C37.021 22.3162 37.2717 22.5669 37.2717 22.8746C37.2717 23.1822 37.021 23.433 36.7107 23.433H31.5479C28.8178 23.433 26.597 25.6538 26.597 28.3839C26.597 31.1114 28.8178 33.3322 31.5479 33.3322H38.4326C38.6549 33.3322 38.8565 33.464 38.9444 33.6709L39.8105 35.6564L40.674 33.6709C40.7645 33.4666 40.9662 33.3322 41.1885 33.3322H48.0732C50.8033 33.3322 53.0241 31.1114 53.0241 28.3839C53.0241 25.6538 50.8033 23.433 48.0732 23.433H42.9077C42.6001 23.433 42.3493 23.1822 42.3493 22.8746C42.3493 22.5669 42.6001 22.3162 42.9077 22.3162H48.0732C51.4186 22.3162 54.1409 25.0385 54.1409 28.3839Z" fill="white"/>
</svg>
