<svg width="78" height="79" viewBox="0 0 78 79" fill="none" xmlns="http://www.w3.org/2000/svg">
<circle cx="38.9993" cy="39.6856" r="38.9222" fill="#16449B"/>
<path d="M22.0539 47.3044C21.7487 47.3044 21.499 47.5541 21.499 47.8593C21.499 48.1645 21.746 48.4143 22.0539 48.4143C22.3591 48.4143 22.6088 48.1673 22.6088 47.8593C22.6088 47.5514 22.3591 47.3044 22.0539 47.3044Z" fill="white"/>
<path d="M55.9063 30.3577C56.4445 29.8334 56.6332 29.0648 56.4029 28.3518C56.1698 27.6387 55.565 27.1282 54.8214 27.02L51.8249 26.5844C51.5197 26.54 51.2589 26.3486 51.123 26.0739L49.7829 23.3604C49.45 22.6862 48.7785 22.27 48.0266 22.27C47.2747 22.27 46.6033 22.689 46.2704 23.3604L44.9303 26.0739C44.7943 26.3486 44.5307 26.54 44.2283 26.5844L41.2318 27.02C40.4883 27.1282 39.8834 27.6387 39.6504 28.3518C39.4173 29.0648 39.6087 29.8334 40.147 30.3577L42.3139 32.4719C42.5331 32.6856 42.633 32.9963 42.583 33.2987L42.0725 36.2813C41.9449 37.0221 42.2445 37.7546 42.8522 38.1957C43.1962 38.4455 43.5957 38.5731 44.0008 38.5731C44.3116 38.5731 44.6251 38.4982 44.9136 38.3456L47.5938 36.9361C47.8657 36.7918 48.1903 36.7918 48.4622 36.9361L51.1424 38.3456C51.8055 38.6952 52.5963 38.6369 53.2039 38.1957C53.8115 37.7546 54.1084 37.0221 53.9835 36.2813L53.8864 35.7098C53.8393 35.4296 53.5729 35.2437 53.2954 35.2908C53.0152 35.338 52.8293 35.6043 52.8765 35.8818L52.9736 36.4534C53.0346 36.8113 52.8959 37.1525 52.6018 37.3662C52.3077 37.5798 51.9415 37.6075 51.6196 37.4383L48.9395 36.0288C48.3679 35.7292 47.6881 35.7292 47.1166 36.0288L44.4364 37.4383C44.1146 37.6075 43.7483 37.5798 43.4542 37.3662C43.1601 37.1525 43.0214 36.8113 43.0824 36.4534L43.593 33.4707C43.7012 32.8354 43.4903 32.1889 43.0297 31.7367L40.8628 29.6225C40.602 29.37 40.5132 29.0121 40.627 28.6653C40.738 28.3212 41.021 28.0826 41.3789 28.0299L44.3754 27.5943C45.0135 27.5028 45.5629 27.1005 45.8486 26.5234L47.1887 23.8099C47.3497 23.4853 47.6632 23.291 48.0266 23.291C48.3901 23.291 48.7036 23.4853 48.8645 23.8099L50.2046 26.5234C50.4904 27.1005 51.0398 27.5028 51.6779 27.5943L54.6744 28.0299C55.0351 28.0826 55.3153 28.3185 55.4263 28.6653C55.5373 29.0093 55.4512 29.3672 55.1904 29.6225L53.0235 31.7367C52.563 32.1861 52.3521 32.8354 52.4603 33.4707L52.477 33.5706C52.5241 33.8509 52.7905 34.0367 53.0679 33.9896C53.3482 33.9424 53.5341 33.6761 53.4869 33.3986L53.4702 33.2987C53.4175 32.9963 53.5174 32.6883 53.7394 32.4719L55.9063 30.3577Z" fill="white"/>
<path d="M49.7134 44.3884C50.0769 43.9667 50.2961 43.4201 50.2961 42.8208C50.2961 41.4946 49.2168 40.4181 47.8933 40.4181L40.0942 40.4098C40.0942 40.407 40.0082 40.1573 39.9527 40.038C39.9527 40.038 39.9527 40.038 39.9527 40.0352C39.8334 39.7827 39.789 39.5053 39.825 39.2362C39.9388 38.3622 39.9665 37.4521 39.9915 36.7224C40.0498 34.8496 39.6752 33.4846 38.8484 32.5413C38.0161 31.5951 36.823 31.0569 35.5662 31.0569C35.5578 31.0569 35.5467 31.0569 35.5384 31.0569C34.8337 31.0624 34.2594 31.6451 34.2594 32.3581V34.6332C34.2594 36.0815 34.0235 38.0958 32.9082 39.472C31.7234 40.9314 30.6997 40.9175 29.0072 40.8981C28.9489 40.8981 28.8907 40.8953 28.8324 40.8953V40.2794C28.8324 39.2584 28.0028 38.4288 26.9818 38.4288H23.4082C22.3872 38.4288 21.5576 39.2584 21.5576 40.2794V45.4233C21.5576 45.7063 21.7879 45.9366 22.0709 45.9366C22.3539 45.9366 22.5842 45.7063 22.5842 45.4233V40.2849C22.5842 39.8299 22.9532 39.4609 23.4082 39.4609H26.9818C27.4368 39.4609 27.8058 39.8299 27.8058 40.2849V55.2507C27.8058 55.7057 27.4368 56.0747 26.9818 56.0747H23.4082C22.9532 56.0747 22.5842 55.7057 22.5842 55.2507V50.3315C22.5842 50.0485 22.3539 49.8182 22.0709 49.8182C21.7879 49.8182 21.5576 50.0485 21.5576 50.3315V55.2507C21.5576 56.2717 22.3872 57.1013 23.4082 57.1013H26.9818C28.0028 57.1013 28.8324 56.2717 28.8324 55.2507V54.4766H29.526C29.8617 54.4766 30.1919 54.5931 30.461 54.8067C30.5304 54.8622 30.6109 54.9316 30.7024 55.0093C31.3433 55.5559 32.5364 56.5741 34.2427 56.5741H46.8196C48.1458 56.5741 49.2223 55.4948 49.2223 54.1714C49.2223 53.5998 49.0198 53.0727 48.6868 52.6593C49.6274 52.3319 50.3044 51.4385 50.3044 50.3897C50.3044 49.7904 50.0852 49.2438 49.7217 48.8221C50.5846 48.4587 51.1922 47.6013 51.1922 46.6053C51.1839 45.6092 50.5763 44.7519 49.7134 44.3884ZM43.5207 41.4419H47.8933C48.6536 41.4419 49.2723 42.0606 49.2723 42.8208C49.2723 43.5811 48.6536 44.1998 47.8933 44.1998H43.5207C42.7605 44.1998 42.1418 43.5811 42.1418 42.8208C42.1418 42.0606 42.7605 41.4419 43.5207 41.4419ZM40.4715 55.5475H34.2344C32.9054 55.5475 31.9759 54.754 31.36 54.2269C31.2629 54.1436 31.1741 54.066 31.0909 54.0021C30.6442 53.647 30.0837 53.45 29.5177 53.45H28.8241V41.9219C28.8796 41.9219 28.9323 41.9219 28.9878 41.9247C30.7829 41.9469 32.2007 41.9635 33.6989 40.1212C34.4203 39.2334 35.2804 37.5604 35.2804 34.636V32.3609C35.2804 32.2083 35.3969 32.0835 35.544 32.0835C35.5495 32.0835 35.5578 32.0835 35.5634 32.0835C36.5123 32.0835 37.4501 32.508 38.0771 33.221C38.7236 33.9563 39.0149 35.0938 38.9649 36.6919C38.9427 37.3994 38.915 38.279 38.8068 39.103C38.7458 39.5663 38.8207 40.038 39.0232 40.468C39.0232 40.4708 39.026 40.4736 39.026 40.4764C39.0288 40.4791 39.0288 40.4847 39.0315 40.4875V40.4902C39.1952 40.8759 39.3201 41.2921 39.3395 41.7138C39.3645 42.2382 39.259 42.7653 39.0232 43.287C39.0177 43.2981 38.5349 44.3662 37.1976 44.9572C36.9395 45.071 36.823 45.3734 36.9368 45.6342C37.3335 46.5276 38.8068 45.1847 39.1703 44.8074C39.4782 44.4883 39.7779 44.1138 39.9582 43.7031C40.2579 43.0372 40.3938 42.3519 40.3605 41.6666C40.3577 41.589 40.3494 41.5113 40.3411 41.4308H41.5563C41.2789 41.822 41.1124 42.302 41.1124 42.8181C41.1124 43.8141 41.72 44.6687 42.5829 45.0349C42.2194 45.4566 42.0003 46.0032 42.0003 46.6025C42.0003 47.2018 42.2194 47.7484 42.5829 48.1701C41.72 48.5336 41.1124 49.3909 41.1124 50.3869C41.1124 50.9585 41.315 51.4857 41.6479 51.8991C40.7073 52.2264 40.0304 53.1198 40.0304 54.1686C40.0359 54.6819 40.1968 55.1563 40.4715 55.5475ZM46.814 55.5475H42.4386C41.6784 55.5448 41.0625 54.9288 41.0625 54.1686C41.0625 53.4084 41.6812 52.7897 42.4414 52.7897H46.814C47.5743 52.7897 48.193 53.4084 48.193 54.1686C48.193 54.9288 47.5743 55.5475 46.814 55.5475ZM47.8933 51.7659H43.5207C42.7605 51.7659 42.1418 51.1472 42.1418 50.3869C42.1418 49.6267 42.7605 49.008 43.5207 49.008H47.8933C48.6536 49.008 49.2723 49.6267 49.2723 50.3869C49.2723 51.1472 48.6536 51.7659 47.8933 51.7659ZM48.7812 47.9842H44.4085C43.6483 47.9842 43.0296 47.3655 43.0296 46.6053C43.0296 45.8451 43.6483 45.2263 44.4085 45.2263H48.7812C49.5414 45.2263 50.1601 45.8451 50.1601 46.6053C50.1601 47.3655 49.5414 47.9842 48.7812 47.9842Z" fill="white"/>
</svg>
