<svg width="79" height="79" viewBox="0 0 79 79" fill="none" xmlns="http://www.w3.org/2000/svg">
<circle cx="39.1898" cy="39.6856" r="38.9222" fill="#16449B"/>
<path d="M54.4334 45.9355H45.4575V41.7729C45.4575 40.5289 44.4455 39.5168 43.2015 39.5168H35.1774C33.9334 39.5168 32.9214 40.5289 32.9214 41.7729V42.7247H23.9485C22.7015 42.7247 21.6895 43.7367 21.6895 44.9807V59.4235C21.6895 59.7819 21.9846 60.0741 22.3431 60.0741H56.0389C56.3973 60.0741 56.6895 59.7819 56.6895 59.4235V48.1915C56.6895 46.9476 55.6774 45.9355 54.4334 45.9355ZM44.1533 58.7699H34.2256V56.6132C34.2256 56.2548 33.9334 55.9626 33.575 55.9626C33.2135 55.9626 32.9214 56.2548 32.9214 56.6132V58.7699H22.9937V44.9807C22.9937 44.4566 23.4214 44.0289 23.9485 44.0289H32.9214V49.3934C32.9214 49.7518 33.2135 50.044 33.575 50.044C33.9334 50.044 34.2256 49.7518 34.2256 49.3934V41.7729C34.2256 41.2458 34.6533 40.8181 35.1774 40.8181H43.2015C43.7256 40.8181 44.1533 41.2458 44.1533 41.7729V58.7699ZM55.3852 58.7699H45.4575V47.2367H54.4334C54.9575 47.2367 55.3852 47.6644 55.3852 48.1915V58.7699V58.7699Z" fill="white"/>
<path d="M52.6772 54.2068C52.6772 55.6737 51.4905 56.8664 50.0297 56.8664C49.4423 56.8664 48.8851 56.6767 48.4212 56.3183C48.2827 56.2098 48.1923 56.0562 48.1712 55.8845C48.1471 55.7128 48.1953 55.5411 48.3007 55.4026C48.4303 55.2369 48.623 55.1496 48.8188 55.1496C48.9574 55.1496 49.0959 55.1948 49.2134 55.2851C49.4513 55.4658 49.7315 55.5622 50.0297 55.5622C50.7706 55.5622 51.376 54.9538 51.376 54.2068C51.376 53.758 51.1531 53.3363 50.7827 53.0833C50.62 52.9749 50.5176 52.8002 50.4995 52.6044C50.4815 52.4086 50.5507 52.2189 50.6893 52.0803C50.873 51.8996 50.9754 51.6586 50.9754 51.3996C50.9754 50.8755 50.5507 50.4478 50.0297 50.4478C49.7556 50.4478 49.4935 50.5683 49.3128 50.7791C49.0809 51.0532 48.6682 51.0833 48.3941 50.8514C48.12 50.6164 48.0869 50.2068 48.3218 49.9327C48.7495 49.4297 49.373 49.1436 50.0297 49.1436C50.6501 49.1436 51.2134 49.3966 51.62 49.8062C52.0266 50.2128 52.2797 50.7791 52.2797 51.3996C52.2797 51.7399 52.2074 52.0652 52.0628 52.3695L52.0206 52.4538L52.0809 52.5261C52.4664 52.999 52.6772 53.5984 52.6772 54.2068Z" fill="white"/>
<path d="M30.2132 53.005C30.2132 53.3634 29.9211 53.6556 29.5626 53.6556H26.3548C25.9933 53.6556 25.7012 53.3634 25.7012 53.005C25.7012 51.8243 26.6018 51.1285 27.397 50.514C28.3036 49.8152 28.9 49.2911 28.912 48.3996C28.918 47.761 28.5144 47.3694 28.1108 47.267C28.0536 47.252 27.9753 47.2369 27.8849 47.2369C27.6439 47.2369 27.3096 47.3363 27.0686 47.7911C26.9 48.1104 26.5054 48.2309 26.1891 48.0622C25.8698 47.8935 25.7494 47.499 25.918 47.1827C26.4331 46.2068 27.4211 45.746 28.4331 46.005C29.4933 46.2761 30.2283 47.267 30.2132 48.4146C30.1952 50.002 29.0867 50.8574 28.1952 51.5472C27.9482 51.7369 27.7132 51.9206 27.5265 52.0923L27.2433 52.3514H29.5626C29.9211 52.3514 30.2132 52.6435 30.2132 53.005Z" fill="white"/>
<path d="M40.732 49.7941C40.732 50.1555 40.4398 50.4477 40.0814 50.4477H38.3012C37.9428 50.4477 37.6506 50.1555 37.6506 49.7941C37.6506 49.4357 37.9428 49.1435 38.3012 49.1435H38.5392V44.52L38.3735 44.5381C38.1145 44.5652 37.8645 44.4387 37.738 44.2158C37.6506 44.0652 37.6265 43.8905 37.6717 43.7218C37.7169 43.5531 37.8253 43.4116 37.9759 43.3272L38.8645 42.8122C39.0663 42.6977 39.3163 42.6977 39.5151 42.8122C39.7169 42.9296 39.8434 43.1435 39.8434 43.3754V49.1435H40.0814C40.4398 49.1435 40.732 49.4357 40.732 49.7941Z" fill="white"/>
<path d="M46.8518 26.1405C46.5566 25.7189 46.1138 25.4387 45.6078 25.3514L42.4451 24.7911L40.8789 21.9086C40.6981 21.5773 40.4271 21.3062 40.0927 21.1285C39.8126 20.9779 39.5024 20.9026 39.1921 20.9026C39.0024 20.9026 38.8126 20.9297 38.6289 20.9869C38.1379 21.1375 37.7313 21.4689 37.4903 21.9237L35.9813 24.755L32.8066 25.3454C32.412 25.4086 32.0536 25.5863 31.7674 25.8604C31.3969 26.2189 31.1861 26.6978 31.1771 27.2128C31.168 27.7249 31.3578 28.2128 31.7162 28.5863L33.9451 30.8966L33.5355 34.0351C33.4542 34.4538 33.5114 34.8695 33.6951 35.246C34.0144 35.9056 34.6951 36.3303 35.4301 36.3303C35.7222 36.3303 36.0054 36.267 36.2704 36.1375L39.156 34.7309L42.1198 36.1435C42.4572 36.3062 42.8367 36.3634 43.2132 36.3122C43.7222 36.2399 44.174 35.9749 44.4843 35.5652C44.7945 35.1556 44.9271 34.6496 44.8578 34.1375L44.412 30.9568L46.6048 28.6466C46.906 28.3544 47.1018 27.9899 47.174 27.5803C47.2614 27.0743 47.1469 26.5622 46.8518 26.1405ZM45.8909 27.3574C45.8608 27.5261 45.7704 27.6405 45.7012 27.7038L45.6741 27.7339L43.2524 30.2881C43.1138 30.4327 43.0506 30.6285 43.0777 30.8273L43.5656 34.3182C43.5897 34.4809 43.5475 34.6466 43.4451 34.7791C43.3457 34.9116 43.2012 34.996 43.0355 35.0201C42.912 35.0381 42.7885 35.0201 42.6801 34.9688L39.4331 33.4207C39.2554 33.3363 39.0475 33.3363 38.8698 33.4237L35.7012 34.9658C35.6138 35.008 35.5204 35.0291 35.4271 35.0291C35.3608 35.0291 35.2915 35.017 35.2253 34.9929C35.0656 34.9387 34.9391 34.8273 34.8668 34.6767C34.7885 34.5201 34.7945 34.3725 34.8156 34.2791C34.8186 34.261 34.8216 34.246 34.8216 34.2309L35.2795 30.755C35.3036 30.5592 35.2403 30.3634 35.1018 30.2189L32.656 27.6797C32.5385 27.5592 32.4783 27.4026 32.4813 27.2369C32.4843 27.0713 32.5506 26.9146 32.671 26.8002C32.7885 26.6857 32.921 26.6466 33.0084 26.6345L36.5265 25.9809C36.7222 25.9448 36.8909 25.8213 36.9843 25.6466L38.6409 22.5351C38.7192 22.3905 38.8488 22.2821 39.0084 22.2339C39.162 22.1857 39.3367 22.2038 39.4813 22.2791C39.5897 22.3363 39.6771 22.4237 39.7343 22.5291L41.4512 25.6887C41.5445 25.8634 41.7132 25.9839 41.909 26.017L45.3819 26.6345C45.5475 26.6616 45.6891 26.752 45.7855 26.8905C45.8819 27.0261 45.918 27.1917 45.8909 27.3574Z" fill="white"/>
<path d="M30.7675 22.1043C30.5928 22.4025 30.1802 22.517 29.876 22.3423L26.7103 20.514C26.5597 20.4266 26.4513 20.2881 26.4061 20.1194C26.3609 19.9507 26.385 19.776 26.4724 19.6254C26.5597 19.4748 26.6983 19.3664 26.8669 19.3212C26.9242 19.3062 26.9814 19.2971 27.0356 19.2971C27.1501 19.2971 27.2615 19.3272 27.3609 19.3875L30.5296 21.2158C30.6802 21.3001 30.7856 21.4417 30.8308 21.6104C30.876 21.779 30.8549 21.9537 30.7675 22.1043Z" fill="white"/>
<path d="M30.7675 22.1043C30.5928 22.4025 30.1802 22.517 29.876 22.3423L26.7103 20.514C26.5597 20.4266 26.4513 20.2881 26.4061 20.1194C26.3609 19.9507 26.385 19.776 26.4724 19.6254C26.5597 19.4748 26.6983 19.3664 26.8669 19.3212C26.9242 19.3062 26.9814 19.2971 27.0356 19.2971C27.1501 19.2971 27.2615 19.3272 27.3609 19.3875L30.5296 21.2158C30.6802 21.3001 30.7856 21.4417 30.8308 21.6104C30.876 21.779 30.8549 21.9537 30.7675 22.1043Z" fill="white"/>
<path d="M28.4599 29.3242C28.3574 29.4627 28.2038 29.5531 28.0321 29.5802L24.4147 30.1043C24.0532 30.1555 23.7249 29.9025 23.6737 29.5561C23.6225 29.1976 23.8695 28.8663 24.2249 28.8151L27.8454 28.288C27.8755 28.285 27.9087 28.282 27.9388 28.282C28.258 28.282 28.5352 28.5169 28.5834 28.8392C28.6074 29.0139 28.5653 29.1856 28.4599 29.3242Z" fill="white"/>
<path d="M28.0321 29.5802L24.4147 30.1043C24.0532 30.1555 23.7249 29.9025 23.6737 29.5561C23.6225 29.1976 23.8695 28.8663 24.2249 28.8151L27.8454 28.288C27.8755 28.285 27.9087 28.282 27.9388 28.282C28.258 28.282 28.5352 28.5169 28.5834 28.8392C28.6074 29.0139 28.5653 29.1856 28.4599 29.3242C28.3574 29.4627 28.2038 29.5531 28.0321 29.5802Z" fill="white"/>
<path d="M30.8609 36.1735L28.2736 38.7579C28.0266 39.0049 27.5989 39.0049 27.3519 38.7579C27.2284 38.6344 27.1621 38.4717 27.1621 38.297C27.1621 38.1253 27.2284 37.9597 27.3519 37.8362L29.9392 35.2519C30.0627 35.1284 30.2254 35.0591 30.4001 35.0591C30.5717 35.0591 30.7374 35.1284 30.8609 35.2519C31.1139 35.5049 31.1139 35.9205 30.8609 36.1735Z" fill="white"/>
<path d="M27.3519 38.7579C27.2284 38.6344 27.1621 38.4717 27.1621 38.297C27.1621 38.1253 27.2284 37.9597 27.3519 37.8362L29.9392 35.2519C30.0627 35.1284 30.2254 35.0591 30.4001 35.0591C30.5717 35.0591 30.7374 35.1284 30.8609 35.2519C31.1139 35.5049 31.1139 35.9205 30.8609 36.1735L28.2736 38.7579C28.0266 39.0049 27.5989 39.0049 27.3519 38.7579Z" fill="white"/>
<path d="M51.9724 20.1194C51.9302 20.2881 51.8218 20.4266 51.6712 20.514L48.5025 22.3423C48.2013 22.517 47.7857 22.4056 47.614 22.1043C47.5266 21.9537 47.5025 21.779 47.5477 21.6104C47.5929 21.4417 47.7013 21.3001 47.8519 21.2158L51.0176 19.3875C51.12 19.3272 51.2314 19.2971 51.3429 19.2971C51.4001 19.2971 51.4573 19.3062 51.5146 19.3212C51.6802 19.3664 51.8218 19.4748 51.9091 19.6254C51.9965 19.776 52.0176 19.9507 51.9724 20.1194Z" fill="white"/>
<path d="M54.7047 29.5561C54.6535 29.9025 54.3252 30.1585 53.9668 30.1043L50.3463 29.5802C50.1746 29.5531 50.024 29.4627 49.9186 29.3242C49.8342 29.2097 49.7891 29.0742 49.7891 28.9326C49.7891 28.8995 49.7921 28.8693 49.7951 28.8392C49.8433 28.5169 50.1234 28.282 50.4427 28.282C50.4728 28.282 50.5029 28.285 50.536 28.288L54.1535 28.8151C54.5089 28.8663 54.7559 29.1976 54.7047 29.5561Z" fill="white"/>
<path d="M54.7047 29.5561C54.6535 29.9025 54.3252 30.1585 53.9668 30.1043L50.3463 29.5802C50.1746 29.5531 50.024 29.4627 49.9186 29.3242C49.8342 29.2097 49.7891 29.0742 49.7891 28.9326C49.7891 28.8995 49.7921 28.8693 49.7951 28.8392C49.8433 28.5169 50.1234 28.282 50.4427 28.282C50.4728 28.282 50.5029 28.285 50.536 28.288L54.1535 28.8151C54.5089 28.8663 54.7559 29.1976 54.7047 29.5561Z" fill="white"/>
<path d="M50.1051 38.7579L47.5208 36.1735C47.2678 35.9175 47.2678 35.5048 47.5208 35.2518C47.7738 34.9958 48.1865 34.9958 48.4425 35.2518L51.0268 37.8362C51.2829 38.0922 51.2829 38.5048 51.0268 38.7579C50.7829 39.0048 50.3521 39.0048 50.1051 38.7579Z" fill="white"/>
<path d="M51.0268 38.7579C50.7829 39.0048 50.3521 39.0048 50.1051 38.7579L47.5208 36.1735C47.2678 35.9175 47.2678 35.5048 47.5208 35.2518C47.7738 34.9958 48.1865 34.9958 48.4425 35.2518L51.0268 37.8362C51.2829 38.0922 51.2829 38.5048 51.0268 38.7579Z" fill="white"/>
<path d="M34.2261 53.0049C34.2261 53.3634 33.9339 53.6555 33.5755 53.6555C33.214 53.6555 32.9219 53.3634 32.9219 53.0049C32.9219 52.6435 33.214 52.3513 33.5755 52.3513C33.9339 52.3513 34.2261 52.6435 34.2261 53.0049Z" fill="white"/>
</svg>
